<svg xmlns="http://www.w3.org/2000/svg" viewBox="0 0 412.98 258.59"><defs><style>.cls-1{fill:#a62648;}.cls-2{fill:#84b0e3;}.cls-3{fill:#fff;}</style></defs><g id="Layer_2" data-name="Layer 2"><g id="Layer_1-2" data-name="Layer 1"><path class="cls-1" d="M99.24,80a17.85,17.85,0,0,1,.12,3.75,30.41,30.41,0,0,1-.64,4.81A17.3,17.3,0,0,1,97.13,93a5.11,5.11,0,0,1-2.58,2.58,25,25,0,0,1-2.17,5.75c-1,1.88-1.9,3.71-2.76,5.51a53.1,53.1,0,0,0-4.45,3q-2.11,1.59-4.29,2.94A26.21,26.21,0,0,1,76.25,115a16.89,16.89,0,0,1-5.4,1.06l-.35,1.17H65l-.94.94H44.11l-.94-.82h-11a.91.91,0,0,0-.53.24c-.19.15-.17.27.06.35a9.81,9.81,0,0,1-2.75.17c-1.37,0-2.82-.11-4.34-.23l-4.29-.35c-1.33-.12-2.22-.18-2.69-.18l-.94.82H6c-1.25-1.25-1.82-2.42-1.7-3.52A27.44,27.44,0,0,1,5,110.81h6.57a.9.9,0,0,0,.53-.23c.2-.16.18-.31-.06-.47l4.34-.35,2.35-2.35A40.8,40.8,0,0,0,19.3,101q.06-3.87-.12-8.33c-.12-3-.25-6-.41-9s-.28-5.87-.35-8.45-.1-4.83-.06-6.75a11.49,11.49,0,0,1,.53-3.93,23.63,23.63,0,0,1-1.29-7.74A72.46,72.46,0,0,1,18,48.81q.4-3.81.82-7.15A21.82,21.82,0,0,0,18.89,36a11.67,11.67,0,0,0-4.58-2.23l-.47-1.06-3.4-.23a5,5,0,0,0-2.11-1.7,5.7,5.7,0,0,1-1.47-.65,1.43,1.43,0,0,1-.53-1.29,14.52,14.52,0,0,1,.83-3.52h6.57l.82-.94H29l1.4.94.36-.94H51l.82.94H66.16l.35,1.06a28.87,28.87,0,0,1,5.58,2.58C73.77,30,75.39,31,77,32.1s3.12,2.17,4.69,3.22A24.1,24.1,0,0,0,86.81,38a35.81,35.81,0,0,1,3.87,6.1q1.63,3.28,3.11,6.51c1,2.15,1.95,4.21,2.93,6.16a25.9,25.9,0,0,0,3.34,5.16V79.14ZM86,47.58l-1.06-.47-.58-3.87A19.76,19.76,0,0,0,81.18,42L77.66,41a16.65,16.65,0,0,1-3.17-1.29,3.89,3.89,0,0,1-1.88-1.93l-2.58-2-14-7,.24,2.7-4.22-1.87L53.26,32,46.1,28.69l-1.41.94a14.32,14.32,0,0,0-5.16.47,12.66,12.66,0,0,1-4.81.47l-1.64,1.88a51.11,51.11,0,0,0-.35,5.92q-.12,4.64-.12,10.74t.06,13Q32.73,69,33,75t.59,10.15c.24,2.82.55,4.5.94,5,0,2.12-.06,4-.18,5.58s-.15,3.09-.11,4.45a20.65,20.65,0,0,0,.52,4.11,19.51,19.51,0,0,0,1.76,4.52,23.77,23.77,0,0,0,4,1.46,20.33,20.33,0,0,0,4.22.65l.36,1.17H54l2.23-1.64H57.6a4.62,4.62,0,0,1,1.41.23,22.36,22.36,0,0,1,3.75-.88,18.13,18.13,0,0,0,3.64-.88,9.31,9.31,0,0,0,3.34-2.17,37.79,37.79,0,0,0,2.76-3.05c.86-1,1.74-2.07,2.64-3a8.81,8.81,0,0,1,3-2.17A42.71,42.71,0,0,1,80.3,94.8c1-1.53,2-3.11,2.93-4.75s1.88-3.21,2.7-4.7A18.64,18.64,0,0,0,87.51,82l-.82-1.4a58.34,58.34,0,0,1,.47-7.4c.31-2.42.65-4.8,1-7.15s.6-4.71.76-7.1a38.55,38.55,0,0,0-.23-7.33A15.25,15.25,0,0,1,86,47.58Z" transform="translate(-3.05 -10.35)"/><path class="cls-1" d="M172.86,107.94c-.51,1.13-1,2.25-1.35,3.34l-.94.59-.35,2.58a2.46,2.46,0,0,0-1.41,1.35,6.55,6.55,0,0,0-.59,1.93H147.46L145.23,119a3.66,3.66,0,0,0-2.17-1.11,19.33,19.33,0,0,0-3.17-.35l-3.46-.12a10,10,0,0,1-3.05-.53,4.77,4.77,0,0,1-2.11.71,22.55,22.55,0,0,1-3.29.23c-1.09,0-2.17,0-3.22-.06s-1.82-.06-2.29-.06l-2,1.29-3.76-1.29a25.7,25.7,0,0,0-2.93,1.12A27.44,27.44,0,0,1,111,120c-1.8-.47-3.1-.86-3.93-1.17a5.38,5.38,0,0,1-1.87-1.12,4.82,4.82,0,0,1-1.06-1.76c-.27-.74-.72-1.85-1.35-3.34l1.53-.82,2.23.12a8.88,8.88,0,0,1,1.46-1.06c.43-.23.86-.45,1.29-.64a11.53,11.53,0,0,1,1.41-.53c.51-.16,1.08-.35,1.7-.59,0-.54,0-1.64.12-3.28s.12-3.33.12-5-.06-3.42-.18-4.87-.41-2.28-.88-2.52c.08-1.72.22-4,.41-6.86s.35-5.75.47-8.68.12-5.65,0-8.15a14.51,14.51,0,0,0-.88-5.17l.94-3-.94-.7V45.12a.67.67,0,0,1,.24-.47.29.29,0,0,1,.47,0c.15-.86.27-1.76.35-2.7a24.83,24.83,0,0,1,.35-2.7,27.53,27.53,0,0,0-1.88-2.52c-.62-.74-1.29-1.54-2-2.4h-7a5.37,5.37,0,0,0,.47-3c-.16-.89-.35-1.89-.59-3l2.23-1.41q7.74,0,15.08.24l14.54.47,14.72.47q7.52.24,15.61.23l2,2.35q.7,3.87,1.41,7a32.87,32.87,0,0,1,.7,7.21l-.94,1.29h-2.81L160,41.6l-.94-5.52c-2-.15-4-.27-6-.35s-3.91-.11-5.87-.11l-.35-1.29h-15.6a18,18,0,0,1-3.75,2.58l-.24,3.52-1.29.93V67.88a13.72,13.72,0,0,1,2.58,2.34l14.31-1.29c.86-2,1.59-3.77,2.17-5.22s1.19-2.93,1.82-4.46,1.17-2.83,1.64-3.93h2.82a5.59,5.59,0,0,0,.82,1.82,4.66,4.66,0,0,0,1.29,1.35,45,45,0,0,1,.47,8c-.08,2.77-.12,5.18-.12,7.21,0,1.64,0,3.25-.11,4.81a9.47,9.47,0,0,0,.93,4.58,14.91,14.91,0,0,1-1.17,2.64,14.5,14.5,0,0,0-1.17,2.63l1.11,2.47a4.46,4.46,0,0,1,.3,2.58h-2.94a4.68,4.68,0,0,0-1.11-1q-.76-.53-1.53-1.11a7.61,7.61,0,0,1-1.29-1.23,2,2,0,0,1-.52-1.24V83.13a.86.86,0,0,0-.24-.53c-.16-.2-.31-.18-.47.06-.39-1.25-.78-2.35-1.17-3.29a27.13,27.13,0,0,0-1.53-3.05c-1.64,0-3.15,0-4.51-.12l-4-.23-3.93-.23c-1.33-.08-2.78-.12-4.34-.12v31.2a8.64,8.64,0,0,1,2.46,2.58h10.56l.94.82c4.53,0,8.09,0,10.67.12s4.56.1,5.93.06a8.32,8.32,0,0,0,2.81-.41,4.22,4.22,0,0,0,1.53-1.35c.51-.66,1.19-1.58,2.05-2.76a41.21,41.21,0,0,1,4.34-4.69,2.77,2.77,0,0,0,1.76-.35,4.22,4.22,0,0,0,1.29-1.06h2l.94,1.06,1.41.23v3.76A13.07,13.07,0,0,0,172.86,107.94Z" transform="translate(-3.05 -10.35)"/><path class="cls-1" d="M250.4,107.94c-.51,1.13-1,2.25-1.35,3.34l-.94.59-.35,2.58a2.46,2.46,0,0,0-1.41,1.35,6.55,6.55,0,0,0-.59,1.93H225L222.77,119a3.66,3.66,0,0,0-2.17-1.11,19.21,19.21,0,0,0-3.17-.35l-3.46-.12a10,10,0,0,1-3.05-.53,4.72,4.72,0,0,1-2.11.71,22.51,22.51,0,0,1-3.28.23c-1.1,0-2.18,0-3.23-.06s-1.82-.06-2.29-.06L198,119l-3.76-1.29a25.7,25.7,0,0,0-2.93,1.12,28.21,28.21,0,0,1-2.81,1.11q-2.7-.7-3.93-1.17a5.34,5.34,0,0,1-1.88-1.12,4.82,4.82,0,0,1-1.06-1.76c-.27-.74-.72-1.85-1.35-3.34l1.53-.82,2.23.12a8.88,8.88,0,0,1,1.46-1.06c.43-.23.86-.45,1.29-.64a11.53,11.53,0,0,1,1.41-.53c.51-.16,1.08-.35,1.7-.59,0-.54,0-1.64.12-3.28s.12-3.33.12-5-.06-3.42-.18-4.87-.41-2.28-.88-2.52c.08-1.72.22-4,.41-6.86s.35-5.75.47-8.68.12-5.65,0-8.15a14.51,14.51,0,0,0-.88-5.17l.94-3-.94-.7V45.12a.67.67,0,0,1,.24-.47.29.29,0,0,1,.47,0c.15-.86.27-1.76.35-2.7a24.83,24.83,0,0,1,.35-2.7,27.53,27.53,0,0,0-1.88-2.52c-.62-.74-1.29-1.54-2-2.4h-7a5.28,5.28,0,0,0,.47-3c-.16-.89-.35-1.89-.59-3l2.23-1.41q7.74,0,15.08.24l14.54.47,14.72.47q7.51.24,15.61.23l2,2.35q.71,3.87,1.41,7a32.87,32.87,0,0,1,.7,7.21l-.94,1.29H242l-4.46-4.57-.94-5.52c-2-.15-4-.27-6-.35s-3.91-.11-5.86-.11l-.36-1.29h-15.6a18,18,0,0,1-3.75,2.58l-.24,3.52-1.29.93V67.88a13.72,13.72,0,0,1,2.58,2.34l14.31-1.29c.86-2,1.59-3.77,2.17-5.22s1.2-2.93,1.82-4.46,1.18-2.83,1.64-3.93h2.82a5.81,5.81,0,0,0,.82,1.82A4.66,4.66,0,0,0,231,58.49a45,45,0,0,1,.47,8c-.08,2.77-.12,5.18-.12,7.21,0,1.64,0,3.25-.11,4.81a9.47,9.47,0,0,0,.93,4.58A14.91,14.91,0,0,1,231,85.77a14.5,14.5,0,0,0-1.17,2.63l1.11,2.47a4.46,4.46,0,0,1,.3,2.58h-2.94a4.68,4.68,0,0,0-1.11-1q-.76-.53-1.53-1.11a8,8,0,0,1-1.29-1.23,2,2,0,0,1-.52-1.24V83.13a.86.86,0,0,0-.24-.53c-.16-.2-.31-.18-.47.06-.39-1.25-.78-2.35-1.17-3.29a27.13,27.13,0,0,0-1.53-3.05c-1.64,0-3.15,0-4.51-.12l-4-.23L208,75.74c-1.33-.08-2.78-.12-4.34-.12v31.2a8.64,8.64,0,0,1,2.46,2.58h10.56l.94.82c4.53,0,8.09,0,10.67.12s4.56.1,5.93.06A8.27,8.27,0,0,0,237,110a4.22,4.22,0,0,0,1.53-1.35c.51-.66,1.19-1.58,2-2.76a41.21,41.21,0,0,1,4.34-4.69,2.77,2.77,0,0,0,1.76-.35A4.22,4.22,0,0,0,248,99.78h2l.93,1.06,1.41.23v3.76A13.07,13.07,0,0,0,250.4,107.94Z" transform="translate(-3.05 -10.35)"/><path class="cls-1" d="M318.79,56.44a40.52,40.52,0,0,0-1.7,5,3.2,3.2,0,0,0-1.88,1.88,5.92,5.92,0,0,0-.35,2.58c-1.33,1.25-2.45,2.25-3.34,3a28.46,28.46,0,0,1-2.64,1.94,12.6,12.6,0,0,1-2.94,1.35c-1.09.35-2.54.76-4.34,1.23l-.58.94a13.09,13.09,0,0,1-6,1.35c-2,0-4-.06-5.86-.06a13.63,13.63,0,0,0-4.87.82q-2.18.82-3.46,4L282,81.84V96.73L280.72,98V109.4a41.62,41.62,0,0,0,4.69,2.53c1.33.58,3,1.23,5,1.93v2l-1.29,1.4h-11l-.94.94H257.38a7.27,7.27,0,0,1-1.65-1.76,9.48,9.48,0,0,1,1.24-1.23c.58-.51,1.17-1.06,1.76-1.64a20.33,20.33,0,0,0,1.52-1.7c.43-.55.6-.94.53-1.18l1.88-.23,3.28-3.29a94.44,94.44,0,0,0,1-12.55c0-4.06.06-8.33.06-12.78a1.8,1.8,0,0,1,.52-.88,1.22,1.22,0,0,1,.88-.41V70.46L267,70.1v-2a2.11,2.11,0,0,1,1.4-1.41v-11l-1.4-2,1.4-2.11c0-.55,0-1.56-.11-3s-.14-3-.18-4.52a33.11,33.11,0,0,1,.12-4.1c.12-1.21.41-1.9.88-2.06a4.71,4.71,0,0,0-.06-2.63,9.22,9.22,0,0,0-1.12-2.41c-1.4-.23-2.81-.41-4.22-.53s-2.81-.25-4.22-.41l-.94-2.81.7-2.35,1.65-1.29,1.87-.12,2.35,1.29.59-1.29a9.62,9.62,0,0,0,3.46.12l4.51-.53c1.64-.19,3.35-.31,5.1-.35a15.16,15.16,0,0,1,5.11.76v.12l11.61-1.06.82.94h8.92l.35,1.18,3.87,1.17A20.75,20.75,0,0,0,315,32a3.79,3.79,0,0,0,2.22,3.17l.12,4a11.35,11.35,0,0,1,3.4,5.81,27.76,27.76,0,0,1,.59,6.86A25.26,25.26,0,0,0,318.79,56.44Zm-9.68-8.86-.23-6L307.59,41l-.24-2.58a38,38,0,0,0-7.1-5.57,33.78,33.78,0,0,1-6.86-5.46l-9.5.94v.35L282.13,30c0,.63,0,1.71.12,3.23s.09,3.09.05,4.69a37.4,37.4,0,0,1-.35,4.46A3.88,3.88,0,0,1,280.84,45l1.29,4.46-1.41,1.87V69.87l1.76,1.64h6.45l.47-1.17c1-.08,1.76-.12,2.23-.12a4.58,4.58,0,0,0,1.35-.17,5.83,5.83,0,0,0,1.17-.59c.43-.27,1.08-.72,1.94-1.35a13.13,13.13,0,0,0,2.23-.41,14.87,14.87,0,0,0,2.11-.76c.39-.86.94-1.9,1.64-3.11s1.45-2.42,2.23-3.64,1.54-2.38,2.29-3.52,1.42-2.09,2.05-2.87c.08-.71.16-1.43.24-2.17a16.93,16.93,0,0,1,.35-2.17Z" transform="translate(-3.05 -10.35)"/><path class="cls-1" d="M77.54,191.17l-4.22-2.58-1.17-3.87A9.86,9.86,0,0,1,70,183a4.5,4.5,0,0,1-1.35-2.29,22.1,22.1,0,0,1-4-3,20.14,20.14,0,0,0-4.17-3l-.58-1.06C58,173.38,56,173.14,54,173a14,14,0,0,1-5.45-1.53,3.43,3.43,0,0,1-1.94,1,22.52,22.52,0,0,1-2.87.41,23.54,23.54,0,0,1-2.88.06,17.8,17.8,0,0,1-2.05-.18A5.1,5.1,0,0,1,33.55,176a31,31,0,0,0-3.34,3.87q-2.17,2.81-4.34,5.75t-3.82,5.22c-1.09,1.52-1.68,2.32-1.76,2.4-.23,2.11-.54,4.21-.93,6.28s-.79,4.12-1.18,6.15l-1.05.59c-.16,2-.34,3.56-.53,4.81a12.72,12.72,0,0,0,.41,4.81c-.31.47-.53.8-.65,1a1.09,1.09,0,0,0-.17.53.53.53,0,0,0,.17.29,3.82,3.82,0,0,1,.53.88v12.2a10.39,10.39,0,0,1,1.29,1.93q1.17,1.94,2.7,4.4c1,1.65,2,3.23,2.93,4.76a32,32,0,0,0,2,3l3.87,1.17,5.16,6.69h5.51l.83.82a45.56,45.56,0,0,0,5.92-.3c1.45-.19,3.11-.45,5-.76l.46-.94A11.4,11.4,0,0,0,57,250.12a55.41,55.41,0,0,0,5.05-3l4.51-3a8.84,8.84,0,0,1,3-1.46c.71-1.1,1.45-2.13,2.23-3.11s1.57-2,2.35-3H78.6a12.72,12.72,0,0,1-.71,4.16,25.22,25.22,0,0,1-1.76,4c-.7,1.29-1.42,2.56-2.17,3.81A30.34,30.34,0,0,0,72,252.4a37.26,37.26,0,0,0-3.7,1.88,20.16,20.16,0,0,1-2.58,1.35,11.21,11.21,0,0,1-2.87.76,25.05,25.05,0,0,1-4.46.12L56.07,258q-3.41,0-6.21.11A32.09,32.09,0,0,0,44,259a35.15,35.15,0,0,0-4.63-.76c-1.37-.12-3-.17-4.75-.17l-.36-1.18-4.81-1.29a8.12,8.12,0,0,0-3.1-2.11,15.84,15.84,0,0,0-3.7-.94l-.47-1.05A13.19,13.19,0,0,1,18.24,249a7.7,7.7,0,0,1-2-4H13.84l.24-.58a17.16,17.16,0,0,0-2.17-4.11q-1.35-1.87-2.64-3.75a30.65,30.65,0,0,1-2.35-4,14.14,14.14,0,0,1-1.29-5l-1.41-1.05q-.58-5.74-.88-11.2t-.29-11.44l2.11-2.23q.58-3.75,1.23-6.69a29,29,0,0,1,1.76-5.45,20.69,20.69,0,0,1,2.94-4.75A33.37,33.37,0,0,1,16,180a10.15,10.15,0,0,1,7.39-7.39l.47-1c2-.94,4-2,6-3.05s3.87-2.23,5.74-3.4q6.45,0,12.85-.24a47.34,47.34,0,0,1,12.73,1.29,5.23,5.23,0,0,0,4,2.23,8,8,0,0,0,3.75,2.11c.24-.07.49-.39.76-.94a16.92,16.92,0,0,0,.77-1.76c.23-.62.42-1.23.58-1.81a4.59,4.59,0,0,1,.47-1.24H75.2a11.13,11.13,0,0,1,.52,1.41c.2.63.39,1.29.59,2s.39,1.37.59,2a3.18,3.18,0,0,0,.64,1.29c0,2.11,0,4,.06,5.69a10.07,10.07,0,0,0,1.82,5.22v6.45Z" transform="translate(-3.05 -10.35)"/><path class="cls-1" d="M164.06,205a33.66,33.66,0,0,1-1.7,9.68,3.67,3.67,0,0,1,.64,1.7c.12.75.22,1.51.3,2.29a15.31,15.31,0,0,1,0,2.23c0,.7-.1,1.29-.17,1.76-.63,1.09-1.23,2.23-1.82,3.4a37,37,0,0,0-1.58,3.64c.07.15.19.37.35.64a1.19,1.19,0,0,0,.47.53,20.18,20.18,0,0,1-1.82,3.64,41.21,41.21,0,0,1-2.76,3.93,35.08,35.08,0,0,1-3.17,3.52,15,15,0,0,1-3.16,2.4q-.83,1.75-1.29,2.52a4.42,4.42,0,0,1-1,1.17c-.35.28-.78.59-1.29.94a23.15,23.15,0,0,0-2.05,1.7l-.71-.11-7.51,5.28a28,28,0,0,0-7.15,1.35,56.75,56.75,0,0,1-7.16,1.81,9.13,9.13,0,0,0-3.87-.93h-4.22l-.47-1.18a40,40,0,0,1-10.38-5.51,61.34,61.34,0,0,1-9.68-8.68,60.54,60.54,0,0,1-7.8-10.85,48.33,48.33,0,0,1-4.87-12,32.62,32.62,0,0,1-.76-12.14A24.67,24.67,0,0,1,84,196.33a14.48,14.48,0,0,1,1.29-6.1,25,25,0,0,1,3.35-5.34,51.65,51.65,0,0,1,4.46-4.81c1.6-1.52,3.1-3,4.51-4.51a15.75,15.75,0,0,0,4.58-1.88,11.76,11.76,0,0,0,3.52-3.29c1.25-.31,2.48-.56,3.69-.76s2.44-.33,3.7-.41l.47-.94,6.33-1.17.47-.94,3.52-1.05,4.69,1.05.47.94,9,1.17.47.94a37.27,37.27,0,0,1,7.69,3.46,46.37,46.37,0,0,1,7.74,5.63,32.63,32.63,0,0,1,6,7.16,16.26,16.26,0,0,1,2.52,8.15l1.65,1.29Q164.12,200.44,164.06,205Zm-18.19-18.59a22,22,0,0,1-3.1-5.63,3.76,3.76,0,0,1-3.05-2.11,9.62,9.62,0,0,1-2-.94l-1.93-1.18a11.2,11.2,0,0,0-2-.93,4.85,4.85,0,0,0-2.17-.24,3.32,3.32,0,0,0-2.58-.82,26,26,0,0,0-4,.35c-1.44.24-2.87.53-4.28.88s-2.54.61-3.4.76l-.35.94c-.94.24-1.92.45-2.93.65s-2,.37-3,.53l-.59.94a11.09,11.09,0,0,0-3.87,2.58,8.06,8.06,0,0,0-1.88,4.22,9.17,9.17,0,0,0-3.93,4.52,35.9,35.9,0,0,0-2.52,7.33,55.46,55.46,0,0,0-1.29,7.86c-.24,2.58-.35,4.61-.35,6.1-.63.62-.92,1.8-.88,3.52a28.4,28.4,0,0,0,.82,5.86,51.34,51.34,0,0,0,2.17,6.92,59.37,59.37,0,0,0,3.11,6.81,27.34,27.34,0,0,0,3.69,5.39,9,9,0,0,0,4,2.82,3.3,3.3,0,0,1,2.52.06,13.47,13.47,0,0,1,2.17,1.29c.71.51,1.49,1,2.35,1.52a5.88,5.88,0,0,0,3.05.76c.39.47.49.5.29.06a9.41,9.41,0,0,0-.76-1.35,17.91,17.91,0,0,0,7.92,1.53,15.55,15.55,0,0,0,6.63-1.94,26.65,26.65,0,0,0,5.8-4.45q2.76-2.76,5.58-5.93a69.68,69.68,0,0,1,2.58-10.91q1.75-5.5,2.93-11a49.49,49.49,0,0,0,1.11-11,25.67,25.67,0,0,0-2.75-11A24.66,24.66,0,0,0,145.87,186.36Zm-27.74,59.12c.08-.39.22-.5.41-.35a2.11,2.11,0,0,1,.53.7C118.91,245.76,118.6,245.64,118.13,245.48Z" transform="translate(-3.05 -10.35)"/><path class="cls-1" d="M231.86,170.46c-.82.28-1.66.53-2.52.77l-.59,1.05a6.59,6.59,0,0,0-4.92,3.11,17.38,17.38,0,0,0-2.29,6.1,38.66,38.66,0,0,0-.65,7.1v6.1a31.77,31.77,0,0,0-3.93,8.5q-1.69,5.34-3.1,11.79t-2.7,13.26q-1.29,6.81-2.76,12.9a85.24,85.24,0,0,1-3.28,10.79,16.89,16.89,0,0,1-4.29,6.81,3.52,3.52,0,0,1-2.4.12,8.36,8.36,0,0,1-2.41-.94q-.59-2.24-2.28-7.92t-4.11-13q-2.4-7.28-5.22-15.31t-5.34-15.08q-2.52-7-4.63-12.2a57.75,57.75,0,0,0-3.05-6.68l1.29-1.41a21.34,21.34,0,0,1-1.47-3.76q-.53-1.87-1.23-3.87a23.65,23.65,0,0,1-6.51-3.57,9.48,9.48,0,0,1-3.17-3.93,2.46,2.46,0,0,1,1-3c1.1-.78,3-1.06,5.87-.83l.58.83h25.11c.15.62.35,1.29.58,2a3.43,3.43,0,0,1,.12,2l-.94.94h-2.46l-1.76,1.29-2.46.24a13.52,13.52,0,0,0-.53,6,36.83,36.83,0,0,0,1.29,5.81q.87,2.87,1.76,5.75a27.12,27.12,0,0,1,1.11,5.8,13.47,13.47,0,0,1,2.35,4.05,53.93,53.93,0,0,1,1.93,5.87q.89,3.23,1.76,6.68t1.94,6.57a47.86,47.86,0,0,0,2.23,5.52,8.36,8.36,0,0,0,2.81,3.46l2.23-1.18a36.72,36.72,0,0,1,1.12-7q.87-3.35,1.82-6.63t1.64-6.68a35.21,35.21,0,0,0,.7-7.16,31.35,31.35,0,0,0,3-6.45,51,51,0,0,0,2.23-8.56,48,48,0,0,0,.71-8.63,14.47,14.47,0,0,0-1.47-6.74h-6.92l-1.41-2.7,1.41-3.28A16.16,16.16,0,0,1,211,165a13.55,13.55,0,0,1,2.7.47c.82.23,1.66.51,2.52.82s1.84.63,2.93.94a4.66,4.66,0,0,1,1.94-.88,13.58,13.58,0,0,1,2.64-.35q1.41-.06,2.7-.06a18.35,18.35,0,0,1,2.23.11l.47-.93a33.39,33.39,0,0,1,5,2.22v2A9.34,9.34,0,0,1,231.86,170.46Z" transform="translate(-3.05 -10.35)"/><path class="cls-1" d="M310.22,248.71c-.51,1.13-1,2.25-1.35,3.34l-.93.59-.35,2.58a2.49,2.49,0,0,0-1.41,1.35,6.26,6.26,0,0,0-.59,1.93H284.83l-2.23,1.29a3.8,3.8,0,0,0-2.17-1.11,20.49,20.49,0,0,0-3.17-.35l-3.46-.12a9.74,9.74,0,0,1-3.05-.53,4.64,4.64,0,0,1-2.11.71,22.55,22.55,0,0,1-3.29.23c-1.09,0-2.17,0-3.22-.06s-1.82-.06-2.29-.06l-2,1.29-3.76-1.29a25,25,0,0,0-2.93,1.12,27.44,27.44,0,0,1-2.82,1.11q-2.7-.71-3.93-1.17a5.23,5.23,0,0,1-1.87-1.11,4.77,4.77,0,0,1-1.06-1.76c-.27-.75-.72-1.86-1.35-3.35l1.53-.82,2.23.12a8.88,8.88,0,0,1,1.46-1.06c.43-.23.86-.45,1.29-.64a11.53,11.53,0,0,1,1.41-.53c.51-.16,1.07-.35,1.7-.59,0-.54,0-1.64.12-3.28s.12-3.32.12-5-.06-3.42-.18-4.86-.41-2.29-.88-2.53c.08-1.72.21-4,.41-6.86s.35-5.75.47-8.68.12-5.65,0-8.15a14.44,14.44,0,0,0-.88-5.16l.94-3.05-.94-.71v-15.6a.7.7,0,0,1,.23-.47.29.29,0,0,1,.47,0q.24-1.29.36-2.7a25.16,25.16,0,0,1,.35-2.7,30.6,30.6,0,0,0-1.88-2.52c-.63-.74-1.29-1.54-2-2.4h-7a5.33,5.33,0,0,0,.47-3c-.16-.9-.35-1.9-.59-3l2.23-1.4q7.74,0,15.07.23l14.55.47,14.72.47q7.51.24,15.6.23l2,2.35q.7,3.87,1.41,7a32.9,32.9,0,0,1,.7,7.22l-.94,1.29h-2.81l-4.46-4.58-.94-5.51c-2-.16-4-.28-6-.36s-3.91-.11-5.87-.11l-.35-1.29h-15.6a17.46,17.46,0,0,1-3.76,2.58l-.23,3.52-1.29.94v26.51a13.72,13.72,0,0,1,2.58,2.34l14.31-1.29c.86-2,1.59-3.77,2.17-5.22s1.19-2.93,1.82-4.45,1.17-2.84,1.64-3.93h2.82a5.64,5.64,0,0,0,.82,1.81,4.66,4.66,0,0,0,1.29,1.35,46,46,0,0,1,.47,8q-.12,4.17-.12,7.21c0,1.65,0,3.25-.12,4.81a9.6,9.6,0,0,0,.94,4.58,14.3,14.3,0,0,1-1.17,2.64,14.3,14.3,0,0,0-1.17,2.64l1.11,2.46a4.38,4.38,0,0,1,.29,2.58h-2.93a5.14,5.14,0,0,0-1.11-1q-.76-.53-1.53-1.11a7.61,7.61,0,0,1-1.29-1.23,2,2,0,0,1-.53-1.23V223.9a.92.92,0,0,0-.23-.53c-.16-.19-.32-.18-.47.06-.39-1.25-.78-2.35-1.17-3.29a29.93,29.93,0,0,0-1.53-3c-1.64,0-3.15,0-4.51-.11l-4-.24-3.93-.23c-1.33-.08-2.78-.12-4.34-.12v31.2a8.66,8.66,0,0,1,2.46,2.59H276.5l.94.82q6.8,0,10.67.11t5.93.06a8.06,8.06,0,0,0,2.81-.41,4.22,4.22,0,0,0,1.53-1.35c.5-.66,1.19-1.58,2.05-2.75a39.41,39.41,0,0,1,4.34-4.7,2.78,2.78,0,0,0,1.76-.35,4.34,4.34,0,0,0,1.29-1.05h2l.94,1.05,1.41.24v3.75A13.65,13.65,0,0,0,310.22,248.71Z" transform="translate(-3.05 -10.35)"/><path class="cls-1" d="M394.39,269H385.6c-.63-.4-1.49-1-2.58-1.76s-2.23-1.59-3.41-2.41-2.28-1.58-3.34-2.29-1.82-1.17-2.29-1.41a16.61,16.61,0,0,0-1.46-3.22c-.59-1-1.18-2-1.76-3s-1.14-2.06-1.65-3.11a13.8,13.8,0,0,1-1.11-3.34,24.12,24.12,0,0,1-.35-5.63q.11-3.4.23-7.34t.06-8a42.36,42.36,0,0,0-.7-7.39,14.7,14.7,0,0,0-2.23-5.63,6.4,6.4,0,0,0-4.4-2.76l-.47-1.06a9.71,9.71,0,0,0-3.17-.94l-1.05.82H344.54a4.15,4.15,0,0,1-3.05,1.3c-.71,2.5-1.27,4.67-1.7,6.51a12.56,12.56,0,0,0,.41,6.39,6.39,6.39,0,0,1-.59,1,1.38,1.38,0,0,0-.29.52.68.68,0,0,0,.12.53,7.63,7.63,0,0,0,.64.88c0,1.33.06,2.8.18,4.4s.17,3.27.17,5-.08,3.24-.23,4.81a11.41,11.41,0,0,1-1.06,4,13.8,13.8,0,0,0,1.82,3.23l2.17,2.87h4.46a9.59,9.59,0,0,1,4.1.94,10.09,10.09,0,0,0,2,3.29l-2.11,3.17L349,260.38c.15-.16.09-.35-.18-.59s-.45-.35-.53-.35q-.82.12-2.34.18a28.25,28.25,0,0,1-3.17-.06,24.22,24.22,0,0,1-3-.41,3.4,3.4,0,0,1-2-1l-4.1,1.41-1.76-1.41-.24,1.29h-12.9a11.73,11.73,0,0,1-1.47-1.76,7.71,7.71,0,0,1-1-2l.7-2.35,1.64-1.41h8.8l-1.41-1.4c.16-1.41.31-3.58.47-6.51s.33-6.18.53-9.74.39-7.23.59-11,.39-7.25.58-10.38.39-5.75.59-7.86.41-3.24.64-3.4a23.67,23.67,0,0,1-.58-3.81c-.08-1.22-.14-2.41-.18-3.58s-.1-2.35-.17-3.52A36.9,36.9,0,0,0,328,187a16.77,16.77,0,0,0,2-5.69,5.33,5.33,0,0,0-.59-3.11,9.17,9.17,0,0,0-1.81-2.17,5.57,5.57,0,0,1-1.59-3,3.71,3.71,0,0,0-2.52.17c-.82.35-1.54.69-2.17,1l-2.11-1.29L318,170.4l.93-2.93h6.22l.35,1.29h5.63l.47-1.29h12.44l.94-.94h4.69a5.8,5.8,0,0,0,1.52.82,3.34,3.34,0,0,0,1.41-.82l1.18.94h9l.47,1.18a21.78,21.78,0,0,1,9,3.93,20.61,20.61,0,0,1,5.45,6.21A19.41,19.41,0,0,1,380.2,186a21.91,21.91,0,0,1-.12,6.8,11.43,11.43,0,0,1-2.17,5.11,4.62,4.62,0,0,1-3.69,2A8.81,8.81,0,0,1,370.7,203a19.82,19.82,0,0,1-4.58,1.29,4.75,4.75,0,0,0,.24,4.16,5.32,5.32,0,0,0,3.52,2.29l.58,1.06,2.12.23a17.9,17.9,0,0,1,5.39,6.51A27.58,27.58,0,0,1,380.2,226a48.13,48.13,0,0,1,.53,7.92q-.06,4,.23,8a45.38,45.38,0,0,0,1.29,7.86,18.75,18.75,0,0,0,3.82,7.28,14.64,14.64,0,0,0,3.93,3.75,9.73,9.73,0,0,0,3,1.17q1.29.24,2.46.36a4.88,4.88,0,0,1,2.58,1.29v2.11A6.62,6.62,0,0,0,394.39,269Zm-25.45-86.7a1.64,1.64,0,0,0-.41-.88,12.7,12.7,0,0,0-.94-1.05c-.35-.35-.7-.69-1.06-1a2.88,2.88,0,0,1-.64-.7c-1.72-1.57-3.37-3-4.93-4.17a17.31,17.31,0,0,0-4.87-2.7,13.53,13.53,0,0,0-5.33-.7,16.77,16.77,0,0,0-6.34,1.94c-.47,1.25-.94,2.69-1.41,4.34s-.88,3.3-1.23,5-.63,3.37-.82,5.05a19.09,19.09,0,0,0-.06,4.51c.24,1.57.45,3.09.65,4.58a35.93,35.93,0,0,1,.29,4.57,18.42,18.42,0,0,1,1.88,3.17,10.85,10.85,0,0,1,2.64.59,7.73,7.73,0,0,0,2.52.47c2.73.07,4.73.11,6,.11a13.94,13.94,0,0,0,3.4-.35,13.55,13.55,0,0,0,2.64-1l3.81-2c.16-.47.45-1.29.89-2.46s.84-2.43,1.23-3.76.74-2.56,1.05-3.69a10.8,10.8,0,0,0,.47-2.41,19,19,0,0,0-.23-2.87,11.61,11.61,0,0,1-.12-2.87c.16-.24.33-.49.53-.77a1.5,1.5,0,0,0,.29-.88Z" transform="translate(-3.05 -10.35)"/><path class="cls-2" d="M117.24,66a17.85,17.85,0,0,1,.12,3.75,30.41,30.41,0,0,1-.64,4.81A17.3,17.3,0,0,1,115.13,79a5.11,5.11,0,0,1-2.58,2.58,25,25,0,0,1-2.17,5.75c-1,1.88-1.9,3.71-2.76,5.51a53.1,53.1,0,0,0-4.45,3q-2.11,1.59-4.29,2.94A26.21,26.21,0,0,1,94.25,101a16.89,16.89,0,0,1-5.4,1.06l-.35,1.17H83l-.94.94H62.11l-.94-.82h-11a.91.91,0,0,0-.53.24c-.19.15-.17.27.06.35a9.81,9.81,0,0,1-2.75.17c-1.37,0-2.82-.11-4.34-.23l-4.29-.35c-1.33-.12-2.22-.18-2.69-.18l-.94.82H24c-1.25-1.25-1.82-2.42-1.7-3.52A27.44,27.44,0,0,1,23,96.81h6.57a.9.9,0,0,0,.53-.23c.2-.16.18-.31-.06-.47l4.34-.35,2.35-2.35A40.8,40.8,0,0,0,37.3,87q.06-3.87-.12-8.33c-.12-3-.25-6-.41-9s-.28-5.87-.35-8.45-.1-4.83-.06-6.75a11.49,11.49,0,0,1,.53-3.93,23.63,23.63,0,0,1-1.29-7.74A72.46,72.46,0,0,1,36,34.81q.41-3.81.82-7.15A21.82,21.82,0,0,0,36.89,22a11.67,11.67,0,0,0-4.58-2.23l-.47-1.06-3.4-.23a5,5,0,0,0-2.11-1.7,5.7,5.7,0,0,1-1.47-.65,1.43,1.43,0,0,1-.53-1.29,14.52,14.52,0,0,1,.83-3.52h6.57l.82-.94H47l1.4.94.36-.94H69l.82.94H84.16l.35,1.06a28.87,28.87,0,0,1,5.58,2.58C91.77,16,93.39,17,95,18.1s3.12,2.17,4.69,3.22A24.1,24.1,0,0,0,104.81,24a35.81,35.81,0,0,1,3.87,6.1q1.63,3.29,3.11,6.51c1,2.15,1.95,4.21,2.93,6.16a25.9,25.9,0,0,0,3.34,5.16V65.14ZM104,33.58l-1.06-.47-.58-3.87A19.76,19.76,0,0,0,99.18,28L95.66,27a16.65,16.65,0,0,1-3.17-1.29,3.89,3.89,0,0,1-1.88-1.93l-2.58-2-14-7,.24,2.7-4.22-1.87L71.26,18,64.1,14.69l-1.41.94a14.32,14.32,0,0,0-5.16.47,12.66,12.66,0,0,1-4.81.47l-1.64,1.88a51.11,51.11,0,0,0-.35,5.92q-.12,4.64-.12,10.74t.06,13Q50.73,55,51,61t.59,10.15c.24,2.82.55,4.5.94,5,0,2.12-.06,4-.18,5.58s-.15,3.09-.11,4.45a20.65,20.65,0,0,0,.52,4.11,19.51,19.51,0,0,0,1.76,4.52,23.77,23.77,0,0,0,4,1.46,20.33,20.33,0,0,0,4.22.65l.36,1.17H72l2.23-1.64H75.6a4.62,4.62,0,0,1,1.41.23,22.36,22.36,0,0,1,3.75-.88,18.13,18.13,0,0,0,3.64-.88,9.31,9.31,0,0,0,3.34-2.17,37.79,37.79,0,0,0,2.76-3.05c.86-1,1.74-2.07,2.64-3a8.81,8.81,0,0,1,3-2.17A42.71,42.71,0,0,1,98.3,80.8c1-1.53,2-3.11,2.93-4.75s1.88-3.21,2.7-4.7a18.64,18.64,0,0,0,1.58-3.4l-.82-1.4a58.34,58.34,0,0,1,.47-7.4c.31-2.42.65-4.8,1-7.15s.6-4.71.76-7.1a38.55,38.55,0,0,0-.23-7.33A15.25,15.25,0,0,1,104,33.58Z" transform="translate(-3.05 -10.35)"/><path class="cls-2" d="M190.85,93.94c-.5,1.13-.95,2.25-1.34,3.34l-.94.59-.35,2.58a2.46,2.46,0,0,0-1.41,1.35,6.55,6.55,0,0,0-.59,1.93H165.46L163.23,105a3.66,3.66,0,0,0-2.17-1.11,19.33,19.33,0,0,0-3.17-.35l-3.46-.12a10,10,0,0,1-3.05-.53,4.77,4.77,0,0,1-2.11.71,22.55,22.55,0,0,1-3.29.23c-1.09,0-2.17,0-3.22-.06s-1.82-.06-2.29-.06l-2,1.29-3.76-1.29a25.7,25.7,0,0,0-2.93,1.12A27.44,27.44,0,0,1,129,106c-1.8-.47-3.1-.86-3.93-1.17a5.38,5.38,0,0,1-1.87-1.12,4.82,4.82,0,0,1-1.06-1.76c-.27-.74-.72-1.85-1.35-3.34l1.53-.82,2.23.12A8.88,8.88,0,0,1,126,96.81c.43-.23.86-.45,1.29-.64a11.53,11.53,0,0,1,1.41-.53c.51-.16,1.08-.35,1.7-.59,0-.54,0-1.64.12-3.28s.12-3.33.12-5-.06-3.42-.18-4.87-.41-2.28-.88-2.52c.08-1.72.22-4,.41-6.86s.35-5.75.47-8.68.12-5.65,0-8.15a14.51,14.51,0,0,0-.88-5.17l.94-3-.94-.7V31.12a.67.67,0,0,1,.24-.47.29.29,0,0,1,.47,0c.15-.86.27-1.76.35-2.7a24.83,24.83,0,0,1,.35-2.7,27.53,27.53,0,0,0-1.88-2.52c-.62-.74-1.29-1.54-2-2.4h-7a5.37,5.37,0,0,0,.47-3c-.16-.89-.35-1.89-.59-3l2.23-1.41q7.74,0,15.08.24l14.54.47,14.72.47q7.52.24,15.61.23l2,2.35q.7,3.87,1.41,7a32.87,32.87,0,0,1,.7,7.21l-.94,1.29h-2.81L178,27.6l-.94-5.52c-2-.15-4-.27-6-.35s-3.91-.11-5.87-.11l-.35-1.29h-15.6a18,18,0,0,1-3.75,2.58l-.24,3.52-1.29.93V53.88a13.72,13.72,0,0,1,2.58,2.34l14.31-1.29c.86-2,1.59-3.77,2.17-5.22s1.19-2.93,1.82-4.46,1.17-2.83,1.64-3.93h2.82a5.59,5.59,0,0,0,.82,1.82,4.66,4.66,0,0,0,1.29,1.35,45,45,0,0,1,.47,8c-.08,2.77-.12,5.18-.12,7.21,0,1.64,0,3.25-.11,4.81a9.47,9.47,0,0,0,.93,4.58,14.91,14.91,0,0,1-1.17,2.64,14.5,14.5,0,0,0-1.17,2.63l1.11,2.47a4.46,4.46,0,0,1,.3,2.58h-2.94a4.68,4.68,0,0,0-1.11-1q-.76-.53-1.53-1.11a7.61,7.61,0,0,1-1.29-1.23,2,2,0,0,1-.52-1.24V69.13a.86.86,0,0,0-.24-.53c-.16-.2-.31-.18-.47.06-.39-1.25-.78-2.35-1.17-3.29a27.13,27.13,0,0,0-1.53-3.05c-1.64,0-3.15,0-4.51-.12l-4-.23-3.93-.23c-1.33-.08-2.78-.12-4.34-.12v31.2a8.64,8.64,0,0,1,2.46,2.58h10.56l.94.82c4.53,0,8.09,0,10.67.12s4.56.1,5.93.06a8.32,8.32,0,0,0,2.81-.41A4.22,4.22,0,0,0,179,94.64c.51-.66,1.19-1.58,2.05-2.76a41.21,41.21,0,0,1,4.34-4.69,2.77,2.77,0,0,0,1.76-.35,4.22,4.22,0,0,0,1.29-1.06h2l.94,1.06,1.41.23v3.76A13.43,13.43,0,0,0,190.85,93.94Z" transform="translate(-3.05 -10.35)"/><path class="cls-2" d="M268.4,93.94c-.51,1.13-1,2.25-1.35,3.34l-.94.59-.35,2.58a2.46,2.46,0,0,0-1.41,1.35,6.55,6.55,0,0,0-.59,1.93H243L240.77,105a3.66,3.66,0,0,0-2.17-1.11,19.21,19.21,0,0,0-3.17-.35l-3.46-.12a10,10,0,0,1-3.05-.53,4.72,4.72,0,0,1-2.11.71,22.51,22.51,0,0,1-3.28.23c-1.1,0-2.18,0-3.23-.06s-1.82-.06-2.29-.06L216,105l-3.76-1.29a25.7,25.7,0,0,0-2.93,1.12,28.21,28.21,0,0,1-2.81,1.11q-2.7-.7-3.93-1.17a5.43,5.43,0,0,1-1.88-1.12,4.82,4.82,0,0,1-1.06-1.76c-.27-.74-.72-1.85-1.35-3.34l1.53-.82,2.23.12a8.88,8.88,0,0,1,1.46-1.06c.43-.23.86-.45,1.29-.64a11.53,11.53,0,0,1,1.41-.53c.51-.16,1.08-.35,1.7-.59,0-.54,0-1.64.12-3.28s.12-3.33.12-5-.06-3.42-.18-4.87-.41-2.28-.88-2.52c.08-1.72.22-4,.41-6.86s.35-5.75.47-8.68.12-5.65,0-8.15a14.51,14.51,0,0,0-.88-5.17l.94-3-.94-.7V31.12a.67.67,0,0,1,.24-.47.29.29,0,0,1,.47,0c.15-.86.27-1.76.35-2.7a24.83,24.83,0,0,1,.35-2.7,27.53,27.53,0,0,0-1.88-2.52c-.62-.74-1.29-1.54-2-2.4h-7a5.28,5.28,0,0,0,.47-3c-.16-.89-.35-1.89-.59-3l2.23-1.41q7.74,0,15.08.24l14.54.47,14.72.47q7.51.24,15.61.23l2,2.35q.71,3.87,1.41,7a32.87,32.87,0,0,1,.7,7.21l-.94,1.29H260l-4.46-4.57-.94-5.52c-2-.15-4-.27-6-.35s-3.91-.11-5.86-.11l-.36-1.29h-15.6a18,18,0,0,1-3.75,2.58l-.24,3.52-1.29.93V53.88a13.72,13.72,0,0,1,2.58,2.34l14.31-1.29c.86-2,1.59-3.77,2.17-5.22s1.2-2.93,1.82-4.46,1.18-2.83,1.64-3.93h2.82a5.81,5.81,0,0,0,.82,1.82A4.66,4.66,0,0,0,249,44.49a45,45,0,0,1,.47,8c-.08,2.77-.12,5.18-.12,7.21,0,1.64,0,3.25-.11,4.81a9.47,9.47,0,0,0,.93,4.58A14.91,14.91,0,0,1,249,71.77a14.5,14.5,0,0,0-1.17,2.63l1.11,2.47a4.46,4.46,0,0,1,.3,2.58h-2.94a4.68,4.68,0,0,0-1.11-1q-.76-.53-1.53-1.11a8,8,0,0,1-1.29-1.23,2,2,0,0,1-.52-1.24V69.13a.86.86,0,0,0-.24-.53c-.16-.2-.31-.18-.47.06-.39-1.25-.78-2.35-1.17-3.29a27.13,27.13,0,0,0-1.53-3.05c-1.64,0-3.15,0-4.51-.12l-4-.23L226,61.74c-1.33-.08-2.78-.12-4.34-.12v31.2a8.64,8.64,0,0,1,2.46,2.58h10.56l.94.82c4.53,0,8.09,0,10.67.12s4.56.1,5.93.06A8.27,8.27,0,0,0,255,96a4.22,4.22,0,0,0,1.53-1.35c.51-.66,1.19-1.58,2.05-2.76a41.21,41.21,0,0,1,4.34-4.69,2.77,2.77,0,0,0,1.76-.35A4.22,4.22,0,0,0,266,85.78h2l.93,1.06,1.41.23v3.76A13.07,13.07,0,0,0,268.4,93.94Z" transform="translate(-3.05 -10.35)"/><path class="cls-2" d="M336.79,42.44a40.52,40.52,0,0,0-1.7,5,3.2,3.2,0,0,0-1.88,1.88,5.92,5.92,0,0,0-.35,2.58c-1.33,1.25-2.45,2.25-3.34,3a28.46,28.46,0,0,1-2.64,1.94,12.6,12.6,0,0,1-2.94,1.35c-1.09.35-2.54.76-4.34,1.23l-.58.94a13.09,13.09,0,0,1-6,1.35c-2,0-4-.06-5.86-.06a13.63,13.63,0,0,0-4.87.82q-2.18.83-3.46,4L300,67.84V82.73L298.72,84V95.4a41.62,41.62,0,0,0,4.69,2.53c1.33.58,3,1.23,5,1.93v2l-1.29,1.4h-11l-.94.94H275.38a7.27,7.27,0,0,1-1.65-1.76,9.48,9.48,0,0,1,1.24-1.23c.58-.51,1.17-1.06,1.76-1.64a20.33,20.33,0,0,0,1.52-1.7c.43-.55.6-.94.53-1.18l1.88-.23,3.28-3.29a94.44,94.44,0,0,0,1-12.55c0-4.06.06-8.33.06-12.78a1.8,1.8,0,0,1,.52-.88,1.22,1.22,0,0,1,.88-.41V56.46L285,56.1v-2a2.11,2.11,0,0,1,1.4-1.41v-11l-1.4-2,1.4-2.11c0-.55,0-1.56-.11-3s-.14-3-.18-4.52a33.11,33.11,0,0,1,.12-4.1c.12-1.21.41-1.9.88-2.06a4.71,4.71,0,0,0-.06-2.63,9.22,9.22,0,0,0-1.12-2.41c-1.4-.23-2.81-.41-4.22-.53s-2.81-.25-4.22-.41l-.94-2.81.7-2.35,1.65-1.29,1.87-.12,2.35,1.29.59-1.29a9.62,9.62,0,0,0,3.46.12l4.51-.53c1.64-.19,3.35-.31,5.1-.35a15.16,15.16,0,0,1,5.11.76v.12l11.61-1.06.82.94h8.92l.35,1.18,3.87,1.17A20.75,20.75,0,0,0,333,18a3.79,3.79,0,0,0,2.22,3.17l.12,4a11.35,11.35,0,0,1,3.4,5.81,27.76,27.76,0,0,1,.59,6.86A25.26,25.26,0,0,0,336.79,42.44Zm-9.68-8.86-.23-6L325.59,27l-.24-2.58a38,38,0,0,0-7.1-5.57,33.78,33.78,0,0,1-6.86-5.46l-9.5.94v.35L300.13,16c0,.63,0,1.71.12,3.23s.09,3.09.05,4.69a37.4,37.4,0,0,1-.35,4.46A3.88,3.88,0,0,1,298.84,31l1.29,4.46-1.41,1.87V55.87l1.76,1.64h6.45l.47-1.17c1-.08,1.76-.12,2.23-.12a4.58,4.58,0,0,0,1.35-.17,5.83,5.83,0,0,0,1.17-.59c.43-.27,1.08-.72,1.94-1.35a13.13,13.13,0,0,0,2.23-.41,14.87,14.87,0,0,0,2.11-.76c.39-.86.94-1.9,1.64-3.11s1.45-2.42,2.23-3.64,1.54-2.38,2.29-3.52,1.42-2.09,2.05-2.87c.08-.71.16-1.43.24-2.17a16.93,16.93,0,0,1,.35-2.17Z" transform="translate(-3.05 -10.35)"/><path class="cls-2" d="M95.54,177.17l-4.22-2.58-1.17-3.87A9.86,9.86,0,0,1,88,169a4.5,4.5,0,0,1-1.35-2.29,22.1,22.1,0,0,1-4-3,20.14,20.14,0,0,0-4.17-3l-.58-1.06C76,159.38,74,159.14,72,159a14,14,0,0,1-5.45-1.53,3.43,3.43,0,0,1-1.94,1,22.52,22.52,0,0,1-2.87.41,23.54,23.54,0,0,1-2.88.06,17.8,17.8,0,0,1-2.05-.18A5.1,5.1,0,0,1,51.55,162a31,31,0,0,0-3.34,3.87q-2.18,2.81-4.34,5.75t-3.82,5.22c-1.09,1.52-1.68,2.32-1.76,2.4-.23,2.11-.54,4.21-.93,6.28s-.79,4.12-1.18,6.15l-1,.59c-.16,2-.34,3.56-.53,4.81a12.72,12.72,0,0,0,.41,4.81c-.31.47-.53.8-.65,1a1.09,1.09,0,0,0-.17.53.53.53,0,0,0,.17.29,3.82,3.82,0,0,1,.53.88v12.2a10.39,10.39,0,0,1,1.29,1.93q1.17,1.94,2.7,4.4c1,1.65,2,3.23,2.93,4.76a32,32,0,0,0,2,3l3.87,1.17,5.16,6.69h5.51l.83.82a45.56,45.56,0,0,0,5.92-.3c1.45-.19,3.11-.45,5-.76l.46-.94A11.4,11.4,0,0,0,75,236.12a55.41,55.41,0,0,0,5-3l4.51-3a8.84,8.84,0,0,1,3-1.46c.71-1.1,1.45-2.13,2.23-3.11s1.57-2,2.35-3H96.6a12.72,12.72,0,0,1-.71,4.16,25.22,25.22,0,0,1-1.76,4c-.7,1.29-1.42,2.56-2.17,3.81A30.34,30.34,0,0,0,90,238.4a37.26,37.26,0,0,0-3.7,1.88,20.16,20.16,0,0,1-2.58,1.35,11.21,11.21,0,0,1-2.87.76,25.05,25.05,0,0,1-4.46.12L74.07,244q-3.41,0-6.21.11A32.09,32.09,0,0,0,62,245a35.15,35.15,0,0,0-4.63-.76c-1.37-.12-3-.17-4.75-.17l-.36-1.18-4.81-1.29a8.12,8.12,0,0,0-3.1-2.11,15.84,15.84,0,0,0-3.7-.94l-.47-1.05A13.19,13.19,0,0,1,36.24,235a7.7,7.7,0,0,1-2.05-4H31.84l.24-.58a17.16,17.16,0,0,0-2.17-4.11q-1.35-1.87-2.64-3.75a30.65,30.65,0,0,1-2.35-4,14.14,14.14,0,0,1-1.29-5l-1.41-1.05q-.59-5.74-.88-11.2t-.29-11.44l2.11-2.23q.59-3.75,1.23-6.69a29,29,0,0,1,1.76-5.45,20.69,20.69,0,0,1,2.94-4.75A33.37,33.37,0,0,1,34,166a10.15,10.15,0,0,1,7.39-7.39l.47-1c2-.94,4-2,6-3.05s3.87-2.23,5.74-3.4q6.45,0,12.85-.24a47.34,47.34,0,0,1,12.73,1.29,5.23,5.23,0,0,0,4,2.23,8,8,0,0,0,3.75,2.11c.24-.07.49-.39.76-.94a16.92,16.92,0,0,0,.77-1.76c.23-.62.42-1.23.58-1.81a4.59,4.59,0,0,1,.47-1.24H93.2a11.13,11.13,0,0,1,.52,1.41c.2.63.39,1.29.59,2s.39,1.37.59,2a3.18,3.18,0,0,0,.64,1.29c0,2.11,0,4,.06,5.69a10.07,10.07,0,0,0,1.82,5.22v6.45Z" transform="translate(-3.05 -10.35)"/><path class="cls-2" d="M182.06,191a33.66,33.66,0,0,1-1.7,9.68,3.67,3.67,0,0,1,.64,1.7c.12.75.22,1.51.3,2.29a15.31,15.31,0,0,1,0,2.23c0,.7-.1,1.29-.17,1.76-.63,1.09-1.23,2.23-1.82,3.4a37,37,0,0,0-1.58,3.64c.07.15.19.37.35.64a1.19,1.19,0,0,0,.47.53,20.18,20.18,0,0,1-1.82,3.64,41.21,41.21,0,0,1-2.76,3.93,35.08,35.08,0,0,1-3.17,3.52,15,15,0,0,1-3.16,2.4q-.83,1.75-1.29,2.52a4.42,4.42,0,0,1-1,1.17c-.35.28-.78.59-1.29.94a23.15,23.15,0,0,0-2.05,1.7l-.71-.11-7.51,5.28a28,28,0,0,0-7.15,1.35,56.75,56.75,0,0,1-7.16,1.81,9.13,9.13,0,0,0-3.87-.93h-4.22l-.47-1.18a40,40,0,0,1-10.38-5.51,61.34,61.34,0,0,1-9.68-8.68,60.54,60.54,0,0,1-7.8-10.85,48.33,48.33,0,0,1-4.87-12,32.62,32.62,0,0,1-.76-12.14A24.67,24.67,0,0,1,102,182.33a14.48,14.48,0,0,1,1.29-6.1,25,25,0,0,1,3.35-5.34,51.65,51.65,0,0,1,4.46-4.81c1.6-1.52,3.1-3,4.51-4.51a15.75,15.75,0,0,0,4.58-1.88,11.76,11.76,0,0,0,3.52-3.29c1.25-.31,2.48-.56,3.69-.76s2.44-.33,3.7-.41l.47-.94,6.33-1.17.47-.94,3.52-1.05,4.69,1.05.47.94,9,1.17.47.94a37.27,37.27,0,0,1,7.69,3.46,46.37,46.37,0,0,1,7.74,5.63,32.63,32.63,0,0,1,6,7.16,16.26,16.26,0,0,1,2.52,8.15l1.65,1.29Q182.12,186.44,182.06,191Zm-18.19-18.59a22,22,0,0,1-3.1-5.63,3.76,3.76,0,0,1-3.05-2.11,9.62,9.62,0,0,1-2-.94l-1.93-1.18a11.2,11.2,0,0,0-2-.93,4.85,4.85,0,0,0-2.17-.24,3.32,3.32,0,0,0-2.58-.82,26,26,0,0,0-4,.35c-1.44.24-2.87.53-4.28.88s-2.54.61-3.4.76l-.35.94c-.94.24-1.92.45-2.93.65s-2,.37-3.05.53l-.59.94a11.09,11.09,0,0,0-3.87,2.58,8.06,8.06,0,0,0-1.88,4.22,9.17,9.17,0,0,0-3.93,4.52,35.9,35.9,0,0,0-2.52,7.33,55.46,55.46,0,0,0-1.29,7.86c-.24,2.58-.35,4.61-.35,6.1-.63.62-.92,1.8-.88,3.52a28.4,28.4,0,0,0,.82,5.86,51.34,51.34,0,0,0,2.17,6.92,59.37,59.37,0,0,0,3.11,6.81,27.34,27.34,0,0,0,3.69,5.39,9,9,0,0,0,4,2.82,3.3,3.3,0,0,1,2.52.06,13.47,13.47,0,0,1,2.17,1.29c.71.51,1.49,1,2.35,1.52a5.88,5.88,0,0,0,3,.76c.39.47.49.5.29.06a9.41,9.41,0,0,0-.76-1.35,17.91,17.91,0,0,0,7.92,1.53,15.55,15.55,0,0,0,6.63-1.94,26.65,26.65,0,0,0,5.8-4.45q2.76-2.76,5.58-5.93a69.68,69.68,0,0,1,2.58-10.91q1.75-5.5,2.93-11a49.49,49.49,0,0,0,1.11-11,25.67,25.67,0,0,0-2.75-11A24.66,24.66,0,0,0,163.87,172.36Zm-27.74,59.12c.08-.39.22-.5.41-.35a2.11,2.11,0,0,1,.53.7C136.91,231.76,136.6,231.64,136.13,231.48Z" transform="translate(-3.05 -10.35)"/><path class="cls-2" d="M249.86,156.46c-.82.28-1.66.53-2.52.77l-.59,1.05a6.59,6.59,0,0,0-4.92,3.11,17.38,17.38,0,0,0-2.29,6.1,38.66,38.66,0,0,0-.65,7.1v6.1a31.77,31.77,0,0,0-3.93,8.5q-1.69,5.34-3.1,11.79t-2.7,13.26q-1.29,6.81-2.76,12.9a85.24,85.24,0,0,1-3.28,10.79,16.89,16.89,0,0,1-4.29,6.81,3.52,3.52,0,0,1-2.4.12,8.36,8.36,0,0,1-2.41-.94q-.59-2.23-2.28-7.92t-4.11-13q-2.4-7.28-5.22-15.31t-5.34-15.08q-2.52-7-4.63-12.2a56,56,0,0,0-3.05-6.68l1.29-1.41a21.34,21.34,0,0,1-1.47-3.76q-.53-1.87-1.23-3.87a23.65,23.65,0,0,1-6.51-3.57,9.48,9.48,0,0,1-3.17-3.93,2.46,2.46,0,0,1,1-3c1.1-.78,3-1.06,5.87-.83l.58.83h25.11c.15.62.35,1.29.58,2a3.43,3.43,0,0,1,.12,2l-.94.94h-2.46l-1.76,1.29-2.46.24a13.52,13.52,0,0,0-.53,6,36.83,36.83,0,0,0,1.29,5.81q.87,2.87,1.76,5.75a27.12,27.12,0,0,1,1.11,5.8,13.47,13.47,0,0,1,2.35,4.05,53.93,53.93,0,0,1,1.93,5.87q.89,3.23,1.76,6.68t1.94,6.57a47.86,47.86,0,0,0,2.23,5.52,8.36,8.36,0,0,0,2.81,3.46l2.23-1.18a36.72,36.72,0,0,1,1.12-7q.87-3.35,1.82-6.63t1.64-6.68a35.21,35.21,0,0,0,.7-7.16,31.35,31.35,0,0,0,3-6.45,51,51,0,0,0,2.23-8.56,48,48,0,0,0,.71-8.63,14.47,14.47,0,0,0-1.47-6.74h-6.92l-1.41-2.7,1.41-3.28A16.16,16.16,0,0,1,229,151a13.55,13.55,0,0,1,2.7.47c.82.23,1.66.51,2.52.82s1.84.63,2.93.94a4.66,4.66,0,0,1,1.94-.88,13.58,13.58,0,0,1,2.64-.35q1.41-.06,2.7-.06a18.35,18.35,0,0,1,2.23.11l.47-.93a33.39,33.39,0,0,1,5,2.22v2A9.34,9.34,0,0,1,249.86,156.46Z" transform="translate(-3.05 -10.35)"/><path class="cls-2" d="M328.22,234.71c-.51,1.13-1,2.25-1.35,3.34l-.93.59-.35,2.58a2.49,2.49,0,0,0-1.41,1.35,6.26,6.26,0,0,0-.59,1.93H302.83l-2.23,1.29a3.8,3.8,0,0,0-2.17-1.11,20.49,20.49,0,0,0-3.17-.35l-3.46-.12a9.74,9.74,0,0,1-3.05-.53,4.64,4.64,0,0,1-2.11.71,22.55,22.55,0,0,1-3.29.23c-1.09,0-2.17,0-3.22-.06s-1.82-.06-2.29-.06l-2,1.29-3.76-1.29a25,25,0,0,0-2.93,1.12,27.44,27.44,0,0,1-2.82,1.11q-2.7-.71-3.93-1.17a5.23,5.23,0,0,1-1.87-1.11,4.77,4.77,0,0,1-1.06-1.76c-.27-.75-.72-1.86-1.35-3.35l1.53-.82,2.23.12a8.88,8.88,0,0,1,1.46-1.06c.43-.23.86-.45,1.29-.64a11.53,11.53,0,0,1,1.41-.53c.51-.16,1.07-.35,1.7-.59,0-.54,0-1.64.12-3.28s.12-3.32.12-5-.06-3.42-.18-4.86-.41-2.29-.88-2.53c.08-1.72.21-4,.41-6.86s.35-5.75.47-8.68.12-5.65,0-8.15a14.44,14.44,0,0,0-.88-5.16l.94-3.05-.94-.71v-15.6a.7.7,0,0,1,.23-.47.29.29,0,0,1,.47,0q.24-1.29.36-2.7a25.16,25.16,0,0,1,.35-2.7,30.6,30.6,0,0,0-1.88-2.52c-.63-.74-1.29-1.54-2-2.4h-7a5.33,5.33,0,0,0,.47-3c-.16-.9-.35-1.9-.59-3l2.23-1.4q7.74,0,15.07.23l14.55.47,14.72.47q7.51.24,15.6.23l2,2.35q.7,3.87,1.41,7a32.9,32.9,0,0,1,.7,7.22l-.94,1.29h-2.81l-4.46-4.58-.94-5.51c-2-.16-4-.28-6-.36s-3.91-.11-5.87-.11l-.35-1.29h-15.6a17.46,17.46,0,0,1-3.76,2.58l-.23,3.52-1.29.94v26.51a13.72,13.72,0,0,1,2.58,2.34l14.31-1.29c.86-2,1.59-3.77,2.17-5.22s1.19-2.93,1.82-4.45,1.17-2.84,1.64-3.93h2.82a5.64,5.64,0,0,0,.82,1.81,4.66,4.66,0,0,0,1.29,1.35,46,46,0,0,1,.47,8q-.12,4.17-.12,7.21c0,1.65,0,3.25-.12,4.81a9.6,9.6,0,0,0,.94,4.58,14.3,14.3,0,0,1-1.17,2.64,14.3,14.3,0,0,0-1.17,2.64l1.11,2.46a4.38,4.38,0,0,1,.29,2.58h-2.93a5.14,5.14,0,0,0-1.11-1q-.76-.53-1.53-1.11a7.61,7.61,0,0,1-1.29-1.23,2,2,0,0,1-.53-1.23V209.9a.92.92,0,0,0-.23-.53c-.16-.19-.32-.18-.47.06-.39-1.25-.78-2.35-1.17-3.29a29.93,29.93,0,0,0-1.53-3c-1.64,0-3.15,0-4.51-.11l-4-.24-3.93-.23c-1.33-.08-2.78-.12-4.34-.12v31.2a8.66,8.66,0,0,1,2.46,2.59H294.5l.94.82q6.8,0,10.67.11t5.93.06a8.06,8.06,0,0,0,2.81-.41,4.22,4.22,0,0,0,1.53-1.35c.5-.66,1.19-1.58,2.05-2.75a39.41,39.41,0,0,1,4.34-4.7,2.78,2.78,0,0,0,1.76-.35,4.34,4.34,0,0,0,1.29-1.05h2l.94,1.05,1.41.24v3.75A13.65,13.65,0,0,0,328.22,234.71Z" transform="translate(-3.05 -10.35)"/><path class="cls-2" d="M412.39,255H403.6c-.63-.4-1.49-1-2.58-1.76s-2.23-1.59-3.41-2.41-2.28-1.58-3.34-2.29-1.82-1.17-2.29-1.41a16.61,16.61,0,0,0-1.46-3.22c-.59-1-1.18-2-1.76-3s-1.14-2.06-1.65-3.11a13.8,13.8,0,0,1-1.11-3.34,24.12,24.12,0,0,1-.35-5.63q.11-3.4.23-7.34t.06-8a42.36,42.36,0,0,0-.7-7.39,14.7,14.7,0,0,0-2.23-5.63,6.4,6.4,0,0,0-4.4-2.76l-.47-1.06a9.71,9.71,0,0,0-3.17-.94l-1.05.82H362.54a4.15,4.15,0,0,1-3.05,1.3c-.71,2.5-1.27,4.67-1.7,6.51a12.56,12.56,0,0,0,.41,6.39,6.39,6.39,0,0,1-.59,1,1.38,1.38,0,0,0-.29.52.68.68,0,0,0,.12.53,7.63,7.63,0,0,0,.64.88c0,1.33.06,2.8.18,4.4s.17,3.27.17,5-.08,3.24-.23,4.81a11.41,11.41,0,0,1-1.06,4,13.8,13.8,0,0,0,1.82,3.23l2.17,2.87h4.46a9.59,9.59,0,0,1,4.1.94,10.09,10.09,0,0,0,2,3.29l-2.11,3.17-2.58,1c.15-.16.09-.35-.18-.59s-.45-.35-.53-.35q-.82.12-2.34.18a28.25,28.25,0,0,1-3.17-.06,24.22,24.22,0,0,1-3-.41,3.4,3.4,0,0,1-2-1l-4.1,1.41-1.76-1.41-.24,1.29h-12.9a11.73,11.73,0,0,1-1.47-1.76,7.71,7.71,0,0,1-1-2l.7-2.35,1.64-1.41h8.8l-1.41-1.4c.16-1.41.31-3.58.47-6.51s.33-6.18.53-9.74.39-7.23.59-11,.39-7.25.58-10.38.39-5.75.59-7.86.41-3.24.64-3.4a23.67,23.67,0,0,1-.58-3.81c-.08-1.22-.14-2.41-.18-3.58s-.1-2.35-.17-3.52A36.9,36.9,0,0,0,346,173a16.77,16.77,0,0,0,2-5.69,5.33,5.33,0,0,0-.59-3.11,9.17,9.17,0,0,0-1.81-2.17,5.57,5.57,0,0,1-1.59-3,3.71,3.71,0,0,0-2.52.17c-.82.35-1.54.69-2.17,1l-2.11-1.29L336,156.4l.93-2.93h6.22l.35,1.29h5.63l.47-1.29h12.44l.94-.94h4.69a5.8,5.8,0,0,0,1.52.82,3.34,3.34,0,0,0,1.41-.82l1.18.94h9l.47,1.18a21.78,21.78,0,0,1,9,3.93,20.61,20.61,0,0,1,5.45,6.21A19.41,19.41,0,0,1,398.2,172a21.91,21.91,0,0,1-.12,6.8,11.43,11.43,0,0,1-2.17,5.11,4.62,4.62,0,0,1-3.69,2A8.81,8.81,0,0,1,388.7,189a19.82,19.82,0,0,1-4.58,1.29,4.75,4.75,0,0,0,.24,4.16,5.32,5.32,0,0,0,3.52,2.29l.58,1.06,2.12.23a17.9,17.9,0,0,1,5.39,6.51A27.58,27.58,0,0,1,398.2,212a48.13,48.13,0,0,1,.53,7.92q-.06,4,.23,8a45.38,45.38,0,0,0,1.29,7.86,18.75,18.75,0,0,0,3.82,7.28,14.64,14.64,0,0,0,3.93,3.75,9.73,9.73,0,0,0,3,1.17q1.29.24,2.46.36a4.88,4.88,0,0,1,2.58,1.29v2.11A6.62,6.62,0,0,0,412.39,255Zm-25.45-86.7a1.64,1.64,0,0,0-.41-.88,12.7,12.7,0,0,0-.94-1.05c-.35-.35-.7-.69-1.06-1a2.88,2.88,0,0,1-.64-.7c-1.72-1.57-3.37-3-4.93-4.17a17.31,17.31,0,0,0-4.87-2.7,13.53,13.53,0,0,0-5.33-.7,16.77,16.77,0,0,0-6.34,1.94c-.47,1.25-.94,2.69-1.41,4.34s-.88,3.3-1.23,5-.63,3.37-.82,5.05a19.09,19.09,0,0,0-.06,4.51c.24,1.57.45,3.09.65,4.58a35.93,35.93,0,0,1,.29,4.57,18.42,18.42,0,0,1,1.88,3.17,10.85,10.85,0,0,1,2.64.59,7.73,7.73,0,0,0,2.52.47c2.73.07,4.73.11,6,.11a13.94,13.94,0,0,0,3.4-.35,13.55,13.55,0,0,0,2.64-1l3.81-2c.16-.47.45-1.29.89-2.46s.84-2.43,1.23-3.76.74-2.56,1.05-3.69a10.8,10.8,0,0,0,.47-2.41,19,19,0,0,0-.23-2.87,11.61,11.61,0,0,1-.12-2.87c.16-.24.33-.49.53-.77a1.5,1.5,0,0,0,.29-.88Z" transform="translate(-3.05 -10.35)"/><path class="cls-3" d="M107.74,72.46a17.85,17.85,0,0,1,.12,3.75,30.41,30.41,0,0,1-.64,4.81,17.3,17.3,0,0,1-1.59,4.46,5.11,5.11,0,0,1-2.58,2.58,25,25,0,0,1-2.17,5.75c-1,1.88-1.9,3.71-2.76,5.51a53.1,53.1,0,0,0-4.45,3q-2.11,1.59-4.29,2.94a26.21,26.21,0,0,1-4.63,2.28,16.89,16.89,0,0,1-5.4,1.06L79,109.76H73.49l-.94.94H52.61l-.94-.82h-11a.91.91,0,0,0-.53.24c-.19.15-.17.27.06.35a9.81,9.81,0,0,1-2.75.17c-1.37,0-2.82-.11-4.34-.23l-4.29-.35c-1.33-.12-2.22-.18-2.69-.18l-.94.82H14.48c-1.25-1.25-1.82-2.42-1.7-3.52a27.44,27.44,0,0,1,.76-3.87h6.57a.9.9,0,0,0,.53-.23c.2-.16.18-.31-.06-.47l4.34-.35,2.35-2.35a40.8,40.8,0,0,0,.53-6.45q.06-3.87-.12-8.33c-.12-3-.25-6-.41-9s-.28-5.87-.35-8.45-.1-4.83-.06-6.75A11.49,11.49,0,0,1,27.39,57a23.63,23.63,0,0,1-1.29-7.74,72.46,72.46,0,0,1,.41-7.92q.4-3.81.82-7.15a21.82,21.82,0,0,0,.06-5.69,11.67,11.67,0,0,0-4.58-2.23l-.47-1.06L18.94,25a5,5,0,0,0-2.11-1.7,5.7,5.7,0,0,1-1.47-.65,1.43,1.43,0,0,1-.53-1.29,14.52,14.52,0,0,1,.83-3.52h6.57l.82-.94H37.48l1.4.94.36-.94H59.53l.82.94H74.66L75,18.85a28.87,28.87,0,0,1,5.58,2.58c1.68,1,3.3,2.07,4.87,3.17s3.12,2.17,4.69,3.22a24.1,24.1,0,0,0,5.16,2.64,35.81,35.81,0,0,1,3.87,6.1q1.63,3.28,3.11,6.51c1,2.15,1.95,4.21,2.93,6.16a25.9,25.9,0,0,0,3.34,5.16V71.64ZM94.49,40.08l-1.06-.47-.58-3.87a19.76,19.76,0,0,0-3.17-1.23l-3.52-1.06A16.65,16.65,0,0,1,83,32.16a3.89,3.89,0,0,1-1.88-1.93l-2.58-2-14-7,.24,2.7L60.59,22l1.17,2.46L54.6,21.19l-1.41.94A14.32,14.32,0,0,0,48,22.6a12.66,12.66,0,0,1-4.81.47L41.58,25a51.11,51.11,0,0,0-.35,5.92q-.12,4.64-.12,10.74t.06,13q.06,6.91.29,12.84t.59,10.15c.24,2.82.55,4.5.94,5,0,2.12-.06,4-.18,5.58s-.15,3.09-.11,4.45a20.65,20.65,0,0,0,.52,4.11A19.51,19.51,0,0,0,45,101.32a23.77,23.77,0,0,0,4,1.46,20.33,20.33,0,0,0,4.22.65l.36,1.17h8.91L64.69,103H66.1a4.62,4.62,0,0,1,1.41.23,22.36,22.36,0,0,1,3.75-.88,18.13,18.13,0,0,0,3.64-.88,9.31,9.31,0,0,0,3.34-2.17A37.79,37.79,0,0,0,81,96.21c.86-1,1.74-2.07,2.64-3a8.81,8.81,0,0,1,3-2.17A42.71,42.71,0,0,1,88.8,87.3c1-1.53,2-3.11,2.93-4.75s1.88-3.21,2.7-4.7A18.64,18.64,0,0,0,96,74.45l-.82-1.4a58.34,58.34,0,0,1,.47-7.4c.31-2.42.65-4.8,1-7.15s.6-4.71.76-7.1a38.55,38.55,0,0,0-.23-7.33A15.25,15.25,0,0,1,94.49,40.08Z" transform="translate(-3.05 -10.35)"/><path class="cls-3" d="M181.36,100.44c-.51,1.13-1,2.25-1.35,3.34l-.94.59-.35,2.58a2.46,2.46,0,0,0-1.41,1.35,6.55,6.55,0,0,0-.59,1.93H156l-2.23,1.29a3.66,3.66,0,0,0-2.17-1.11,19.33,19.33,0,0,0-3.17-.35l-3.46-.12a10,10,0,0,1-3.05-.53,4.77,4.77,0,0,1-2.11.71,22.55,22.55,0,0,1-3.29.23c-1.09,0-2.17,0-3.22-.06s-1.82-.06-2.29-.06l-2,1.29-3.76-1.29a25.7,25.7,0,0,0-2.93,1.12,27.44,27.44,0,0,1-2.82,1.11c-1.8-.47-3.1-.86-3.93-1.17a5.38,5.38,0,0,1-1.87-1.12,4.82,4.82,0,0,1-1.06-1.76c-.27-.74-.72-1.85-1.35-3.34l1.53-.82,2.23.12a8.88,8.88,0,0,1,1.46-1.06c.43-.23.86-.45,1.29-.64a11.53,11.53,0,0,1,1.41-.53c.51-.16,1.08-.35,1.7-.59,0-.54,0-1.64.12-3.28s.12-3.33.12-5-.06-3.42-.18-4.87-.41-2.28-.88-2.52c.08-1.72.22-4,.41-6.86s.35-5.75.47-8.68.12-5.65,0-8.15a14.51,14.51,0,0,0-.88-5.17l.94-3-.94-.7V37.62a.67.67,0,0,1,.24-.47.29.29,0,0,1,.47,0c.15-.86.27-1.76.35-2.7a24.83,24.83,0,0,1,.35-2.7,27.53,27.53,0,0,0-1.88-2.52c-.62-.74-1.29-1.54-2-2.4h-7a5.37,5.37,0,0,0,.47-3c-.16-.89-.35-1.89-.59-3l2.23-1.41q7.74,0,15.08.24l14.54.47,14.72.47q7.52.24,15.61.23l2,2.35q.7,3.87,1.41,7a32.87,32.87,0,0,1,.7,7.21l-.94,1.29H173l-4.46-4.57-.94-5.52c-2-.15-4-.27-6-.35s-3.91-.11-5.87-.11l-.35-1.29h-15.6A18,18,0,0,1,136,29.41l-.24,3.52-1.29.93V60.38a13.72,13.72,0,0,1,2.58,2.34l14.31-1.29c.86-2,1.59-3.77,2.17-5.22s1.19-2.93,1.82-4.46,1.17-2.83,1.64-3.93h2.82a5.59,5.59,0,0,0,.82,1.82A4.66,4.66,0,0,0,161.94,51a45,45,0,0,1,.47,8c-.08,2.77-.12,5.18-.12,7.21,0,1.64,0,3.25-.11,4.81a9.47,9.47,0,0,0,.93,4.58,14.91,14.91,0,0,1-1.17,2.64,14.5,14.5,0,0,0-1.17,2.63l1.11,2.47a4.46,4.46,0,0,1,.3,2.58h-2.94a4.68,4.68,0,0,0-1.11-1q-.76-.53-1.53-1.11a7.61,7.61,0,0,1-1.29-1.23,2,2,0,0,1-.52-1.24V75.63a.86.86,0,0,0-.24-.53c-.16-.2-.31-.18-.47.06-.39-1.25-.78-2.35-1.17-3.29a27.13,27.13,0,0,0-1.53-3.05c-1.64,0-3.15,0-4.51-.12l-4-.23L139,68.24c-1.33-.08-2.78-.12-4.34-.12v31.2a8.64,8.64,0,0,1,2.46,2.58h10.56l.94.82c4.53,0,8.09,0,10.67.12s4.56.1,5.93.06a8.32,8.32,0,0,0,2.81-.41,4.22,4.22,0,0,0,1.53-1.35c.51-.66,1.19-1.58,2.05-2.76a41.21,41.21,0,0,1,4.34-4.69,2.77,2.77,0,0,0,1.76-.35A4.22,4.22,0,0,0,179,92.28h2l.94,1.06,1.41.23v3.76A13.07,13.07,0,0,0,181.36,100.44Z" transform="translate(-3.05 -10.35)"/><path class="cls-3" d="M258.9,100.44c-.51,1.13-1,2.25-1.35,3.34l-.94.59-.35,2.58a2.46,2.46,0,0,0-1.41,1.35,6.55,6.55,0,0,0-.59,1.93H233.5l-2.23,1.29a3.66,3.66,0,0,0-2.17-1.11,19.21,19.21,0,0,0-3.17-.35l-3.46-.12a10,10,0,0,1-3.05-.53,4.72,4.72,0,0,1-2.11.71,22.51,22.51,0,0,1-3.28.23c-1.1,0-2.18,0-3.23-.06s-1.82-.06-2.29-.06l-2,1.29-3.76-1.29a25.7,25.7,0,0,0-2.93,1.12,28.21,28.21,0,0,1-2.81,1.11q-2.7-.7-3.93-1.17a5.43,5.43,0,0,1-1.88-1.12,4.82,4.82,0,0,1-1.06-1.76c-.27-.74-.72-1.85-1.35-3.34l1.53-.82,2.23.12a8.88,8.88,0,0,1,1.46-1.06c.43-.23.86-.45,1.29-.64a11.53,11.53,0,0,1,1.41-.53c.51-.16,1.08-.35,1.7-.59,0-.54,0-1.64.12-3.28s.12-3.33.12-5-.06-3.42-.18-4.87-.41-2.28-.88-2.52c.08-1.72.22-4,.41-6.86s.35-5.75.47-8.68.12-5.65,0-8.15A14.51,14.51,0,0,0,197.6,57l.94-3-.94-.7V37.62a.67.67,0,0,1,.24-.47.29.29,0,0,1,.47,0c.15-.86.27-1.76.35-2.7a24.83,24.83,0,0,1,.35-2.7,27.53,27.53,0,0,0-1.88-2.52c-.62-.74-1.29-1.54-2-2.4h-7a5.28,5.28,0,0,0,.47-3c-.16-.89-.35-1.89-.59-3l2.23-1.41q7.74,0,15.08.24l14.54.47,14.72.47q7.51.24,15.61.23l2,2.35q.71,3.87,1.41,7a32.87,32.87,0,0,1,.7,7.21l-.94,1.29h-2.81l-4.46-4.57-.94-5.52c-2-.15-4-.27-6-.35s-3.91-.11-5.86-.11l-.36-1.29h-15.6a18,18,0,0,1-3.75,2.58l-.24,3.52-1.29.93V60.38a13.72,13.72,0,0,1,2.58,2.34l14.31-1.29c.86-2,1.59-3.77,2.17-5.22s1.2-2.93,1.82-4.46,1.18-2.83,1.64-3.93h2.82a5.81,5.81,0,0,0,.82,1.82A4.66,4.66,0,0,0,239.48,51a45,45,0,0,1,.47,8c-.08,2.77-.12,5.18-.12,7.21,0,1.64,0,3.25-.11,4.81a9.47,9.47,0,0,0,.93,4.58,14.91,14.91,0,0,1-1.17,2.64,14.5,14.5,0,0,0-1.17,2.63l1.11,2.47a4.46,4.46,0,0,1,.3,2.58h-2.94a4.68,4.68,0,0,0-1.11-1q-.76-.53-1.53-1.11a8,8,0,0,1-1.29-1.23,2,2,0,0,1-.52-1.24V75.63a.86.86,0,0,0-.24-.53c-.16-.2-.31-.18-.47.06-.39-1.25-.78-2.35-1.17-3.29a27.13,27.13,0,0,0-1.53-3.05c-1.64,0-3.15,0-4.51-.12l-4-.23-3.93-.23c-1.33-.08-2.78-.12-4.34-.12v31.2a8.64,8.64,0,0,1,2.46,2.58h10.56l.94.82c4.53,0,8.09,0,10.67.12s4.56.1,5.93.06a8.27,8.27,0,0,0,2.81-.41,4.22,4.22,0,0,0,1.53-1.35c.51-.66,1.19-1.58,2-2.76a41.21,41.21,0,0,1,4.34-4.69,2.77,2.77,0,0,0,1.76-.35,4.22,4.22,0,0,0,1.29-1.06h2l.93,1.06,1.41.23v3.76A13.07,13.07,0,0,0,258.9,100.44Z" transform="translate(-3.05 -10.35)"/><path class="cls-3" d="M327.29,48.94a40.52,40.52,0,0,0-1.7,5,3.2,3.2,0,0,0-1.88,1.88,5.92,5.92,0,0,0-.35,2.58c-1.33,1.25-2.45,2.25-3.34,3a28.46,28.46,0,0,1-2.64,1.94,12.6,12.6,0,0,1-2.94,1.35c-1.09.35-2.54.76-4.34,1.23l-.58.94a13.09,13.09,0,0,1-6,1.35c-2,0-4-.06-5.86-.06a13.63,13.63,0,0,0-4.87.82q-2.18.82-3.46,4l1.17,1.41V89.23l-1.29,1.29V101.9a41.62,41.62,0,0,0,4.69,2.53c1.33.58,3,1.23,5,1.93v2l-1.29,1.4h-11l-.94.94H265.88a7.27,7.27,0,0,1-1.65-1.76,9.48,9.48,0,0,1,1.24-1.23c.58-.51,1.17-1.06,1.76-1.64a20.33,20.33,0,0,0,1.52-1.7c.43-.55.6-.94.53-1.18l1.88-.23,3.28-3.29a94.44,94.44,0,0,0,1-12.55c0-4.06.06-8.33.06-12.78a1.8,1.8,0,0,1,.52-.88,1.22,1.22,0,0,1,.88-.41V63l-1.4-.36v-2a2.11,2.11,0,0,1,1.4-1.41v-11l-1.4-2,1.4-2.11c0-.55,0-1.56-.11-3s-.14-3-.18-4.52a33.11,33.11,0,0,1,.12-4.1c.12-1.21.41-1.9.88-2.06a4.71,4.71,0,0,0-.06-2.63,9.22,9.22,0,0,0-1.12-2.41c-1.4-.23-2.81-.41-4.22-.53s-2.81-.25-4.22-.41l-.94-2.81.7-2.35,1.65-1.29,1.87-.12,2.35,1.29.59-1.29a9.62,9.62,0,0,0,3.46.12l4.51-.53c1.64-.19,3.35-.31,5.1-.35a15.16,15.16,0,0,1,5.11.76v.12L304,16.85l.82.94h8.92l.35,1.18L318,20.14a20.75,20.75,0,0,0,5.52,4.34,3.79,3.79,0,0,0,2.22,3.17l.12,4a11.35,11.35,0,0,1,3.4,5.81,27.76,27.76,0,0,1,.59,6.86A25.26,25.26,0,0,0,327.29,48.94Zm-9.68-8.86-.23-6-1.29-.59-.24-2.58a38,38,0,0,0-7.1-5.57,33.78,33.78,0,0,1-6.86-5.46l-9.5.94v.35l-1.76,1.29c0,.63,0,1.71.12,3.23s.09,3.09.05,4.69a37.4,37.4,0,0,1-.35,4.46,3.88,3.88,0,0,1-1.11,2.64L290.63,42l-1.41,1.87V62.37L291,64h6.45l.47-1.17c1-.08,1.76-.12,2.23-.12a4.58,4.58,0,0,0,1.35-.17,5.83,5.83,0,0,0,1.17-.59c.43-.27,1.08-.72,1.94-1.35a13.13,13.13,0,0,0,2.23-.41,14.87,14.87,0,0,0,2.11-.76c.39-.86.94-1.9,1.64-3.11s1.45-2.42,2.23-3.64,1.54-2.38,2.29-3.52,1.42-2.09,2.05-2.87c.08-.71.16-1.43.24-2.17a16.93,16.93,0,0,1,.35-2.17Z" transform="translate(-3.05 -10.35)"/><path class="cls-3" d="M86,183.67l-4.22-2.58-1.17-3.87a9.86,9.86,0,0,1-2.17-1.7,4.5,4.5,0,0,1-1.35-2.29,22.1,22.1,0,0,1-4-3,20.14,20.14,0,0,0-4.17-3l-.58-1.06c-1.88-.31-3.81-.55-5.81-.7A14,14,0,0,1,57.07,164a3.43,3.43,0,0,1-1.94,1,22.52,22.52,0,0,1-2.87.41,23.54,23.54,0,0,1-2.88.06,17.8,17.8,0,0,1-2.05-.18,5.1,5.1,0,0,1-5.28,3.29,31,31,0,0,0-3.34,3.87q-2.18,2.81-4.34,5.75t-3.82,5.22c-1.09,1.52-1.68,2.32-1.76,2.4-.23,2.11-.54,4.21-.93,6.28s-.79,4.12-1.18,6.15l-1.05.59c-.16,2-.34,3.56-.53,4.81a12.72,12.72,0,0,0,.41,4.81c-.31.47-.53.8-.65,1a1.09,1.09,0,0,0-.17.53.53.53,0,0,0,.17.29,3.82,3.82,0,0,1,.53.88v12.2a10.39,10.39,0,0,1,1.29,1.93q1.17,1.94,2.7,4.4c1,1.65,2,3.23,2.93,4.76a32,32,0,0,0,2,3l3.87,1.17,5.16,6.69h5.51l.83.82a45.56,45.56,0,0,0,5.92-.3c1.45-.19,3.11-.45,5-.76l.46-.94a11.4,11.4,0,0,0,4.46-1.46,55.41,55.41,0,0,0,5-3l4.51-3a8.84,8.84,0,0,1,3-1.46c.71-1.1,1.45-2.13,2.23-3.11s1.57-2,2.35-3H87.1a12.72,12.72,0,0,1-.71,4.16,25.22,25.22,0,0,1-1.76,4c-.7,1.29-1.42,2.56-2.17,3.81a30.34,30.34,0,0,0-1.93,3.87,37.26,37.26,0,0,0-3.7,1.88,20.16,20.16,0,0,1-2.58,1.35,11.21,11.21,0,0,1-2.87.76,25.05,25.05,0,0,1-4.46.12l-2.35,1.53q-3.4,0-6.21.11a32.09,32.09,0,0,0-5.87.82,35.15,35.15,0,0,0-4.63-.76c-1.37-.12-3-.17-4.75-.17l-.36-1.18-4.81-1.29a8.12,8.12,0,0,0-3.1-2.11,15.84,15.84,0,0,0-3.7-.94L30.67,244a13.19,13.19,0,0,1-3.93-2.47,7.7,7.7,0,0,1-2-4H22.34l.24-.58a17.16,17.16,0,0,0-2.17-4.11q-1.35-1.87-2.64-3.75a30.65,30.65,0,0,1-2.35-4,14.14,14.14,0,0,1-1.29-5L12.72,219q-.59-5.74-.88-11.2t-.29-11.44l2.11-2.23q.59-3.75,1.23-6.69A29,29,0,0,1,16.65,182a20.69,20.69,0,0,1,2.94-4.75,33.37,33.37,0,0,1,4.86-4.7,10.15,10.15,0,0,1,7.39-7.39l.47-1c2-.94,4-2,6-3.05s3.87-2.23,5.74-3.4q6.45,0,12.85-.24a47.34,47.34,0,0,1,12.73,1.29,5.23,5.23,0,0,0,4,2.23A8,8,0,0,0,77.36,163c.24-.07.49-.39.76-.94a16.92,16.92,0,0,0,.77-1.76c.23-.62.42-1.23.58-1.81a4.59,4.59,0,0,1,.47-1.24H83.7a11.13,11.13,0,0,1,.52,1.41c.2.63.39,1.29.59,2s.39,1.37.59,2A3.18,3.18,0,0,0,86,164c0,2.11,0,4,.06,5.69a10.07,10.07,0,0,0,1.82,5.22v6.45Z" transform="translate(-3.05 -10.35)"/><path class="cls-3" d="M172.56,197.45a33.66,33.66,0,0,1-1.7,9.68,3.67,3.67,0,0,1,.64,1.7c.12.75.22,1.51.3,2.29a15.31,15.31,0,0,1,0,2.23c0,.7-.1,1.29-.17,1.76-.63,1.09-1.23,2.23-1.82,3.4a37,37,0,0,0-1.58,3.64c.07.15.19.37.35.64a1.19,1.19,0,0,0,.47.53,20.18,20.18,0,0,1-1.82,3.64,41.21,41.21,0,0,1-2.76,3.93,35.08,35.08,0,0,1-3.17,3.52,15,15,0,0,1-3.16,2.4q-.83,1.75-1.29,2.52a4.42,4.42,0,0,1-1,1.17c-.35.28-.78.59-1.29.94a23.15,23.15,0,0,0-2.05,1.7l-.71-.11-7.51,5.28a28,28,0,0,0-7.15,1.35,56.75,56.75,0,0,1-7.16,1.81,9.13,9.13,0,0,0-3.87-.93h-4.22l-.47-1.18a40,40,0,0,1-10.38-5.51,61.34,61.34,0,0,1-9.68-8.68,60.54,60.54,0,0,1-7.8-10.85,48.33,48.33,0,0,1-4.87-12A32.62,32.62,0,0,1,88,200.15a24.67,24.67,0,0,1,4.51-11.32,14.48,14.48,0,0,1,1.29-6.1,25,25,0,0,1,3.35-5.34,51.65,51.65,0,0,1,4.46-4.81c1.6-1.52,3.1-3,4.51-4.51a15.75,15.75,0,0,0,4.58-1.88,11.76,11.76,0,0,0,3.52-3.29c1.25-.31,2.48-.56,3.69-.76s2.44-.33,3.7-.41l.47-.94,6.33-1.17.47-.94,3.52-1.05,4.69,1.05.47.94,9,1.17.47.94a37.27,37.27,0,0,1,7.69,3.46,46.37,46.37,0,0,1,7.74,5.63,32.63,32.63,0,0,1,6,7.16,16.26,16.26,0,0,1,2.52,8.15l1.65,1.29Q172.62,192.94,172.56,197.45Zm-18.19-18.59a22,22,0,0,1-3.1-5.63,3.76,3.76,0,0,1-3.05-2.11,9.62,9.62,0,0,1-2-.94L144.29,169a11.2,11.2,0,0,0-2-.93,4.85,4.85,0,0,0-2.17-.24,3.32,3.32,0,0,0-2.58-.82,26,26,0,0,0-4,.35c-1.44.24-2.87.53-4.28.88s-2.54.61-3.4.76l-.35.94c-.94.24-1.92.45-2.93.65s-2,.37-3,.53l-.59.94a11.09,11.09,0,0,0-3.87,2.58,8.06,8.06,0,0,0-1.88,4.22,9.17,9.17,0,0,0-3.93,4.52,35.9,35.9,0,0,0-2.52,7.33,55.46,55.46,0,0,0-1.29,7.86c-.24,2.58-.35,4.61-.35,6.1-.63.62-.92,1.8-.88,3.52a28.4,28.4,0,0,0,.82,5.86,51.34,51.34,0,0,0,2.17,6.92,59.37,59.37,0,0,0,3.11,6.81,27.34,27.34,0,0,0,3.69,5.39,9,9,0,0,0,4,2.82,3.3,3.3,0,0,1,2.52.06,13.47,13.47,0,0,1,2.17,1.29c.71.51,1.49,1,2.35,1.52a5.88,5.88,0,0,0,3,.76c.39.47.49.5.29.06a9.41,9.41,0,0,0-.76-1.35,17.91,17.91,0,0,0,7.92,1.53,15.55,15.55,0,0,0,6.63-1.94,26.65,26.65,0,0,0,5.8-4.45q2.76-2.76,5.58-5.93a69.68,69.68,0,0,1,2.58-10.91q1.75-5.5,2.93-11a49.49,49.49,0,0,0,1.11-11,25.67,25.67,0,0,0-2.75-11A24.66,24.66,0,0,0,154.37,178.86ZM126.63,238c.08-.39.22-.5.41-.35a2.11,2.11,0,0,1,.53.7C127.41,238.26,127.1,238.14,126.63,238Z" transform="translate(-3.05 -10.35)"/><path class="cls-3" d="M240.36,163c-.82.28-1.66.53-2.52.77l-.59,1.05a6.59,6.59,0,0,0-4.92,3.11A17.38,17.38,0,0,0,230,174a38.66,38.66,0,0,0-.65,7.1v6.1a31.77,31.77,0,0,0-3.93,8.5q-1.69,5.34-3.1,11.79t-2.7,13.26q-1.29,6.81-2.76,12.9a85.24,85.24,0,0,1-3.28,10.79,16.89,16.89,0,0,1-4.29,6.81,3.52,3.52,0,0,1-2.4.12,8.36,8.36,0,0,1-2.41-.94q-.59-2.23-2.28-7.92t-4.11-13q-2.4-7.28-5.22-15.31t-5.34-15.08q-2.52-7-4.63-12.2a57.75,57.75,0,0,0-3.05-6.68l1.29-1.41a21.34,21.34,0,0,1-1.47-3.76q-.53-1.87-1.23-3.87a23.65,23.65,0,0,1-6.51-3.57,9.48,9.48,0,0,1-3.17-3.93,2.46,2.46,0,0,1,1-3c1.1-.78,3-1.06,5.87-.83l.58.83h25.11c.15.62.35,1.29.58,2a3.43,3.43,0,0,1,.12,2l-.94.94h-2.46l-1.76,1.29-2.46.24a13.52,13.52,0,0,0-.53,6,36.83,36.83,0,0,0,1.29,5.81q.87,2.87,1.76,5.75a27.12,27.12,0,0,1,1.11,5.8,13.47,13.47,0,0,1,2.35,4.05,53.93,53.93,0,0,1,1.93,5.87q.89,3.23,1.76,6.68t1.94,6.57a47.86,47.86,0,0,0,2.23,5.52,8.36,8.36,0,0,0,2.81,3.46l2.23-1.18a36.72,36.72,0,0,1,1.12-7q.87-3.35,1.82-6.63t1.64-6.68a35.21,35.21,0,0,0,.7-7.16,31.35,31.35,0,0,0,3-6.45,51,51,0,0,0,2.23-8.56,48,48,0,0,0,.71-8.63,14.47,14.47,0,0,0-1.47-6.74h-6.92l-1.41-2.7,1.41-3.28a16.16,16.16,0,0,1,3.34-.12,13.55,13.55,0,0,1,2.7.47c.82.23,1.66.51,2.52.82s1.84.63,2.93.94a4.66,4.66,0,0,1,1.94-.88,13.58,13.58,0,0,1,2.64-.35q1.41-.06,2.7-.06a18.35,18.35,0,0,1,2.23.11l.47-.93a33.39,33.39,0,0,1,5,2.22v2A9.34,9.34,0,0,1,240.36,163Z" transform="translate(-3.05 -10.35)"/><path class="cls-3" d="M318.72,241.21c-.51,1.13-1,2.25-1.35,3.34l-.93.59-.35,2.58a2.49,2.49,0,0,0-1.41,1.35,6.26,6.26,0,0,0-.59,1.93H293.33l-2.23,1.29a3.8,3.8,0,0,0-2.17-1.11,20.49,20.49,0,0,0-3.17-.35l-3.46-.12a9.74,9.74,0,0,1-3.05-.53,4.64,4.64,0,0,1-2.11.71,22.55,22.55,0,0,1-3.29.23c-1.09,0-2.17,0-3.22-.06s-1.82-.06-2.29-.06l-2,1.29L262.59,251a25,25,0,0,0-2.93,1.12,27.44,27.44,0,0,1-2.82,1.11q-2.7-.71-3.93-1.17A5.23,5.23,0,0,1,251,251a4.77,4.77,0,0,1-1.06-1.76c-.27-.75-.72-1.86-1.35-3.35l1.53-.82,2.23.12a8.88,8.88,0,0,1,1.46-1.06c.43-.23.86-.45,1.29-.64a11.53,11.53,0,0,1,1.41-.53c.51-.16,1.07-.35,1.7-.59,0-.54,0-1.64.12-3.28s.12-3.32.12-5-.06-3.42-.18-4.86-.41-2.29-.88-2.53c.08-1.72.21-4,.41-6.86s.35-5.75.47-8.68.12-5.65,0-8.15a14.44,14.44,0,0,0-.88-5.16l.94-3.05-.94-.71v-15.6a.7.7,0,0,1,.23-.47.29.29,0,0,1,.47,0q.24-1.29.36-2.7a25.16,25.16,0,0,1,.35-2.7A30.6,30.6,0,0,0,257,170c-.63-.74-1.29-1.54-2-2.4h-7a5.33,5.33,0,0,0,.47-3c-.16-.9-.35-1.9-.59-3l2.23-1.4q7.74,0,15.07.23l14.55.47,14.72.47q7.51.24,15.6.23l2,2.35q.7,3.87,1.41,7a32.9,32.9,0,0,1,.7,7.22l-.94,1.29h-2.81l-4.46-4.58-.94-5.51c-2-.16-4-.28-6-.36s-3.91-.11-5.87-.11l-.35-1.29h-15.6a17.46,17.46,0,0,1-3.76,2.58l-.23,3.52-1.29.94v26.51a13.72,13.72,0,0,1,2.58,2.34l14.31-1.29c.86-2,1.59-3.77,2.17-5.22s1.19-2.93,1.82-4.45,1.17-2.84,1.64-3.93h2.82a5.64,5.64,0,0,0,.82,1.81,4.66,4.66,0,0,0,1.29,1.35,46,46,0,0,1,.47,8q-.12,4.17-.12,7.21c0,1.65,0,3.25-.12,4.81a9.6,9.6,0,0,0,.94,4.58,14.3,14.3,0,0,1-1.17,2.64,14.3,14.3,0,0,0-1.17,2.64l1.11,2.46a4.38,4.38,0,0,1,.29,2.58h-2.93a5.14,5.14,0,0,0-1.11-1q-.76-.53-1.53-1.11a7.61,7.61,0,0,1-1.29-1.23,2,2,0,0,1-.53-1.23V216.4a.92.92,0,0,0-.23-.53c-.16-.19-.32-.18-.47.06-.39-1.25-.78-2.35-1.17-3.29a29.93,29.93,0,0,0-1.53-3c-1.64,0-3.15,0-4.51-.11l-4-.24-3.93-.23c-1.33-.08-2.78-.12-4.34-.12v31.2a8.66,8.66,0,0,1,2.46,2.59H285l.94.82q6.8,0,10.67.11t5.93.06a8.06,8.06,0,0,0,2.81-.41,4.22,4.22,0,0,0,1.53-1.35c.5-.66,1.19-1.58,2.05-2.75a39.41,39.41,0,0,1,4.34-4.7,2.78,2.78,0,0,0,1.76-.35,4.34,4.34,0,0,0,1.29-1.05h2l.94,1.05,1.41.24v3.75A13.65,13.65,0,0,0,318.72,241.21Z" transform="translate(-3.05 -10.35)"/><path class="cls-3" d="M402.89,261.45H394.1c-.63-.4-1.49-1-2.58-1.76s-2.23-1.59-3.41-2.41-2.28-1.58-3.34-2.29-1.82-1.17-2.29-1.41a16.61,16.61,0,0,0-1.46-3.22c-.59-1-1.18-2-1.76-3s-1.14-2.06-1.65-3.11a13.8,13.8,0,0,1-1.11-3.34,24.12,24.12,0,0,1-.35-5.63q.11-3.4.23-7.34t.06-8a42.36,42.36,0,0,0-.7-7.39,14.7,14.7,0,0,0-2.23-5.63,6.4,6.4,0,0,0-4.4-2.76l-.47-1.06a9.71,9.71,0,0,0-3.17-.94l-1.05.82H353a4.15,4.15,0,0,1-3.05,1.3c-.71,2.5-1.27,4.67-1.7,6.51a12.56,12.56,0,0,0,.41,6.39,6.39,6.39,0,0,1-.59,1,1.38,1.38,0,0,0-.29.52.68.68,0,0,0,.12.53,7.63,7.63,0,0,0,.64.88c0,1.33.06,2.8.18,4.4s.17,3.27.17,5-.08,3.24-.23,4.81a11.41,11.41,0,0,1-1.06,4,13.8,13.8,0,0,0,1.82,3.23l2.17,2.87h4.46a9.59,9.59,0,0,1,4.1.94,10.09,10.09,0,0,0,2,3.29l-2.11,3.17-2.58,1c.15-.16.09-.35-.18-.59s-.45-.35-.53-.35q-.82.12-2.34.18a28.25,28.25,0,0,1-3.17-.06,24.22,24.22,0,0,1-3-.41,3.4,3.4,0,0,1-2-1l-4.1,1.41-1.76-1.41-.24,1.29h-12.9a11.73,11.73,0,0,1-1.47-1.76,7.71,7.71,0,0,1-1-2l.7-2.35,1.64-1.41h8.8L334.5,243c.16-1.41.31-3.58.47-6.51s.33-6.18.53-9.74.39-7.23.59-11,.39-7.25.58-10.38.39-5.75.59-7.86.41-3.24.64-3.4a23.67,23.67,0,0,1-.58-3.81c-.08-1.22-.14-2.41-.18-3.58s-.1-2.35-.17-3.52a36.9,36.9,0,0,0-.47-3.75,16.77,16.77,0,0,0,2-5.69,5.33,5.33,0,0,0-.59-3.11,9.17,9.17,0,0,0-1.81-2.17,5.57,5.57,0,0,1-1.59-3,3.71,3.71,0,0,0-2.52.17c-.82.35-1.54.69-2.17,1l-2.11-1.29-1.17-2.47.93-2.93h6.22l.35,1.29h5.63l.47-1.29h12.44l.94-.94h4.69a5.8,5.8,0,0,0,1.52.82,3.34,3.34,0,0,0,1.41-.82l1.18.94h9l.47,1.18a21.78,21.78,0,0,1,9,3.93,20.61,20.61,0,0,1,5.45,6.21,19.41,19.41,0,0,1,2.41,7.16,21.91,21.91,0,0,1-.12,6.8,11.43,11.43,0,0,1-2.17,5.11,4.62,4.62,0,0,1-3.69,2,8.81,8.81,0,0,1-3.52,3.17,19.82,19.82,0,0,1-4.58,1.29,4.75,4.75,0,0,0,.24,4.16,5.32,5.32,0,0,0,3.52,2.29l.58,1.06,2.12.23a17.9,17.9,0,0,1,5.39,6.51,27.58,27.58,0,0,1,2.23,7.45,48.13,48.13,0,0,1,.53,7.92q-.06,4,.23,8a45.38,45.38,0,0,0,1.29,7.86,18.75,18.75,0,0,0,3.82,7.28,14.64,14.64,0,0,0,3.93,3.75,9.73,9.73,0,0,0,3,1.17q1.29.24,2.46.36a4.88,4.88,0,0,1,2.58,1.29v2.11A6.62,6.62,0,0,0,402.89,261.45Zm-25.45-86.7a1.64,1.64,0,0,0-.41-.88,12.7,12.7,0,0,0-.94-1.05c-.35-.35-.7-.69-1.06-1a2.88,2.88,0,0,1-.64-.7c-1.72-1.57-3.37-3-4.93-4.17a17.31,17.31,0,0,0-4.87-2.7,13.53,13.53,0,0,0-5.33-.7,16.77,16.77,0,0,0-6.34,1.94c-.47,1.25-.94,2.69-1.41,4.34s-.88,3.3-1.23,5-.63,3.37-.82,5.05a19.09,19.09,0,0,0-.06,4.51c.24,1.57.45,3.09.65,4.58a35.93,35.93,0,0,1,.29,4.57,18.42,18.42,0,0,1,1.88,3.17,10.85,10.85,0,0,1,2.64.59,7.73,7.73,0,0,0,2.52.47c2.73.07,4.73.11,6,.11a13.94,13.94,0,0,0,3.4-.35,13.55,13.55,0,0,0,2.64-1l3.81-2c.16-.47.45-1.29.89-2.46s.84-2.43,1.23-3.76.74-2.56,1.05-3.69a10.8,10.8,0,0,0,.47-2.41,19,19,0,0,0-.23-2.87,11.61,11.61,0,0,1-.12-2.87c.16-.24.33-.49.53-.77a1.5,1.5,0,0,0,.29-.88Z" transform="translate(-3.05 -10.35)"/></g></g></svg>